<?xml version="1.0" encoding="UTF-8"?>
<svg version="1.1" xmlns="http://www.w3.org/2000/svg" width="2048" height="2048">
<path d="M0 0 C675.84 0 1351.68 0 2048 0 C2048 675.84 2048 1351.68 2048 2048 C1372.16 2048 696.32 2048 0 2048 C0 1372.16 0 696.32 0 0 Z " fill="#868D93" transform="translate(0,0)"/>
<path d="M0 0 C1.19431641 0.19835449 2.38863281 0.39670898 3.61914062 0.60107422 C65.79457631 11.15679041 125.07527214 41.50366983 171.11328125 84.3359375 C173.6204648 86.64973883 176.17354394 88.88948201 178.75 91.125 C189.77554133 101.02839415 199.96351371 112.26701336 209 124 C209.45294434 124.58571777 209.90588867 125.17143555 210.37255859 125.77490234 C226.28647165 146.42578524 239.89722886 168.38360836 251 192 C251.42974121 192.90733887 251.42974121 192.90733887 251.86816406 193.83300781 C264.66175246 221.12308546 273.08817924 250.31077228 278 280 C278.14421387 280.85851562 278.28842773 281.71703125 278.43701172 282.6015625 C278.86646917 285.19086729 279.28089427 287.78201432 279.6875 290.375 C279.80706055 291.12249512 279.92662109 291.86999023 280.04980469 292.64013672 C281.93501787 305.27652941 282.2095447 318.05671776 282.1875 330.8125 C282.18656342 331.52410278 282.18562683 332.23570557 282.18466187 332.96887207 C282.11758932 356.74625345 279.54381592 379.65335943 275 403 C274.73195557 404.42892578 274.73195557 404.42892578 274.45849609 405.88671875 C265.59159792 452.47406488 244.55649421 501.04793637 214.4140625 537.6875 C212.80907936 539.84391552 212.80907936 539.84391552 213.046875 542.078125 C214.23680306 544.47748813 215.66772101 545.92119106 217.625 547.75 C220.24360633 550.26735969 222.72855688 552.77995483 225.0625 555.5625 C226.36789066 557.04794455 227.68207146 558.52566807 229 560 C229.8036499 560.91483154 229.8036499 560.91483154 230.62353516 561.84814453 C232.51039602 563.97017207 234.43828069 566.04845574 236.375 568.125 C236.98738525 568.82568604 237.59977051 569.52637207 238.23071289 570.24829102 C240.07837079 572.18737139 241.65909701 573.69364266 244 575 C246.43503271 574.98903518 248.29886629 574.4574207 250.61230469 573.70898438 C254.81693675 572.4604924 259.08273807 572.67157183 263.4375 572.6875 C264.31470703 572.67138672 265.19191406 572.65527344 266.09570312 572.63867188 C281.86801603 572.62704895 293.4850707 579.97938942 304.37938213 590.77839375 C306.49578556 592.90391758 308.59964611 595.04137852 310.703125 597.1796875 C312.19418235 598.6775483 313.68628727 600.17436695 315.17938232 601.67019653 C319.0874526 605.59160796 322.97987369 609.52820788 326.86950684 613.46789551 C330.0375997 616.67140421 333.21684184 619.86371754 336.39671707 623.05552483 C340.21106853 626.88472501 344.0202514 630.71904667 347.828125 634.5546875 C348.54576271 635.27723598 349.26340042 635.99978447 350.00278473 636.74422836 C352.05050742 638.80839163 354.09469596 640.87598707 356.13769531 642.94482422 C356.73109711 643.54248596 357.3244989 644.14014771 357.93588257 644.75592041 C360.87298449 647.73766089 363.70101666 650.77344144 366.43667603 653.94163513 C370.0746802 658.14069814 373.93804335 662.07189832 377.87548828 665.98901367 C379.00614212 667.11988655 379.00614212 667.11988655 380.15963745 668.27360535 C382.62749698 670.74077379 385.09887042 673.20438953 387.5703125 675.66796875 C389.29732822 677.39311652 391.02412116 679.11848733 392.7507019 680.84407043 C397.28060454 685.37017001 401.81350074 689.89325978 406.3470459 694.41571045 C410.95843373 699.01686516 415.5669924 703.62085163 420.17578125 708.22460938 C427.61718269 715.65723622 435.06031508 723.08812432 442.50567627 730.51678467 C443.78115824 731.78944412 445.05630745 733.06243719 446.33104706 734.33584023 C447.77725222 735.77789194 449.22902246 737.21435844 450.68179321 738.64979553 C453.10286591 741.10428575 455.40598388 743.63777567 457.70800781 746.20410156 C464.62106592 753.81412972 471.92206263 761.03508476 479.20915985 768.28432465 C481.72638437 770.78860405 484.24031244 773.29615302 486.753479 775.80450439 C492.082821 781.12251349 497.41611448 786.43654852 502.75 791.75 C508.95124321 797.92755466 515.15080816 804.10677488 521.34616852 810.2902298 C523.81179058 812.74941481 526.28042487 815.20554763 528.74920654 817.66156006 C530.2701277 819.17884657 531.79090744 820.69627485 533.31152344 822.21386719 C534.3278611 823.22245537 534.3278611 823.22245537 535.36473083 824.25141907 C539.22641611 828.11268005 542.8792576 832.09385339 546.44792747 836.22697449 C548.29440948 838.33632161 550.23474074 840.31567188 552.24780273 842.26611328 C553.00226181 843.00113068 553.75672089 843.73614807 554.53404236 844.49343872 C555.32589432 845.26130707 556.11774628 846.02917542 556.93359375 846.8203125 C558.65245486 848.50703618 560.37052936 850.19456176 562.08789062 851.8828125 C564.75743275 854.5031679 567.43097962 857.11868685 570.1184082 859.72070312 C586.1072771 875.22328004 598.88939056 889.70696232 599.36132812 913.07397461 C599.4416597 929.53190558 595.34150521 943.89921426 585 957 C584.52820312 957.63550781 584.05640625 958.27101563 583.5703125 958.92578125 C575.34292011 969.40757212 561.10833404 977.0591305 548 979 C529.1228131 980.52796074 510.22173938 978.28996099 495.21508789 965.65527344 C494.28946045 964.79450195 493.36383301 963.93373047 492.41015625 963.046875 C491.89890701 962.57174973 491.38765778 962.09662445 490.86091614 961.60710144 C485.39530678 956.49440024 480.07928978 951.23058287 474.7980957 945.9284668 C473.17447771 944.29943428 471.54550397 942.67589272 469.91601562 941.05273438 C461.28484803 932.42665016 461.28484803 932.42665016 457.578125 928.078125 C452.81867039 922.51110167 447.56049737 917.41186264 442.37573242 912.24536133 C440.56639067 910.44137915 438.76245681 908.63211335 436.95898438 906.82226562 C431.72036177 901.5808007 426.48299046 896.41770109 420.83959961 891.6081543 C417.23991439 888.46135582 413.88107175 885.06544112 410.5 881.6875 C409.77296875 880.97271484 409.0459375 880.25792969 408.296875 879.52148438 C407.26820313 878.49571289 407.26820313 878.49571289 406.21875 877.44921875 C405.59935547 876.83393311 404.97996094 876.21864746 404.34179688 875.5847168 C403 874 403 874 403 872 C402.34 872 401.68 872 401 872 C399.66537476 870.64537048 399.66537476 870.64537048 398.07177734 868.70288086 C393.29501284 863.09211345 388.07085478 857.94659598 382.8515625 852.75390625 C381.73852542 851.64279206 380.62571855 850.53144723 379.51312256 849.41989136 C377.13068737 847.04059947 374.74671204 844.66286579 372.36151123 842.28634644 C368.58409387 838.52253596 364.81056919 834.75483865 361.03759766 830.98657227 C353.02803267 822.98807266 345.01424102 814.99381395 337 807 C328.34576944 798.36782774 319.69228375 789.73491653 311.04368401 781.09710217 C307.29879542 777.35717281 303.55148788 773.6196899 299.80226135 769.8841095 C297.46440751 767.55375478 295.12866309 765.22129431 292.79346466 762.88827896 C291.71687667 761.81355089 290.63943074 760.73968138 289.56102753 759.66677475 C284.34593615 754.47741279 279.20425 749.2790479 274.4750061 743.63539124 C272.94811415 741.94247233 271.34067092 740.54836824 269.5625 739.125 C268.716875 738.42375 267.87125 737.7225 267 737 C267 736.34 267 735.68 267 735 C266.34 735 265.68 735 265 735 C263.66564941 733.64070129 263.66564941 733.64070129 262.07226562 731.69458008 C257.78545733 726.65766316 253.11402823 722.04590412 248.39924622 717.41577721 C246.80529693 715.84891924 245.21613848 714.27734497 243.6282959 712.70429993 C239.11898901 708.23729263 234.60700508 703.77310866 230.07861328 699.32543945 C227.29304151 696.58884119 224.51772106 693.84218762 221.74848938 691.08905983 C220.70295922 690.05331251 219.65381498 689.02119821 218.60075378 687.99310875 C209.29258678 678.90089424 202.13269899 669.45685571 198 657 C197.64035156 655.94167969 197.28070312 654.88335938 196.91015625 653.79296875 C195.82846669 649.28515518 195.7060251 645.17619944 195.75 640.5625 C195.74226563 639.75490234 195.73453125 638.94730469 195.7265625 638.11523438 C195.73943725 634.12084396 196.00340521 630.57135086 197.078125 626.71484375 C198.02849418 622.88517811 198.26967612 621.6331711 197 618 C195.17382118 615.581545 193.06718285 613.48285359 190.91796875 611.3515625 C190.30738113 610.73477631 189.69679352 610.11799011 189.06770325 609.48251343 C187.77727914 608.18499902 186.48171094 606.89258302 185.18139648 605.60498047 C183.18911752 603.62660623 181.22204692 601.6253619 179.25585938 599.62109375 C177.99884751 598.36313108 176.74043059 597.1065705 175.48046875 595.8515625 C174.59744331 594.94864975 174.59744331 594.94864975 173.69657898 594.02749634 C171.86020748 592.17463498 171.86020748 592.17463498 169 590 C165.19705724 590.45852899 163.46059284 592.18246674 160.75 594.8125 C143.12358897 611.07710376 122.14318528 623.86088752 101 635 C100.02764404 635.51506104 100.02764404 635.51506104 99.03564453 636.04052734 C94.40919425 638.4728199 89.72846494 640.77296598 85 643 C84.17999512 643.38655762 83.35999023 643.77311523 82.51513672 644.17138672 C66.76543392 651.50379683 50.63965961 657.05014621 34 662 C33.13455566 662.26151855 32.26911133 662.52303711 31.37744141 662.79248047 C21.24085603 665.81729296 10.97551343 667.84931397 0.5625 669.6875 C-0.57952881 669.89020508 -1.72155762 670.09291016 -2.89819336 670.30175781 C-20.79937134 673.31695798 -38.54860956 674.38103438 -56.6875 674.3125 C-57.69502319 674.31067719 -58.70254639 674.30885437 -59.74060059 674.30697632 C-75.03642547 674.26048859 -89.90890212 673.68280469 -105 671 C-106.60560791 670.72663818 -106.60560791 670.72663818 -108.24365234 670.44775391 C-122.05273501 668.06907036 -135.62299752 665.18065776 -149 661 C-150.32402832 660.59273682 -150.32402832 660.59273682 -151.67480469 660.17724609 C-200.11158104 645.14142128 -244.14929909 620.20017941 -281.25390625 585.5625 C-283.90763092 583.08619362 -286.60155682 580.66335092 -289.3125 578.25 C-295.22422818 572.9332221 -300.76444049 567.42346263 -305.9453125 561.390625 C-307.4875053 559.59628661 -309.04791375 557.81757791 -310.6171875 556.046875 C-331.50752933 532.33504487 -348.34528969 505.44707673 -362 477 C-362.52505127 475.92210205 -363.05010254 474.8442041 -363.59106445 473.73364258 C-368.01908072 464.53827947 -371.71099504 455.19838416 -375.0625 445.5625 C-375.32146057 444.82034241 -375.58042114 444.07818481 -375.847229 443.3135376 C-384.87518044 417.32078345 -389.37873951 391.20967112 -393 364 C-393.1244751 363.10506836 -393.2489502 362.21013672 -393.37719727 361.28808594 C-394.47348325 352.26124145 -394.2884374 343.07899504 -394.3125 334 C-394.31511841 333.05569122 -394.31773682 332.11138245 -394.32043457 331.13845825 C-394.32738276 307.58981057 -392.52493535 283.91740814 -386.52978516 261.06054688 C-385.95477934 258.82411873 -385.43381185 256.57890967 -384.91796875 254.328125 C-378.42973513 226.46394941 -367.97953917 199.95002954 -354 175 C-353.54882812 174.13890625 -353.09765625 173.2778125 -352.6328125 172.390625 C-343.96641545 155.87831819 -333.65833213 140.52448703 -322 126 C-321.20980469 124.99710938 -320.41960937 123.99421875 -319.60546875 122.9609375 C-310.6095946 111.71204262 -300.56797534 101.46814635 -290.4375 91.25 C-289.57543945 90.3748877 -288.71337891 89.49977539 -287.82519531 88.59814453 C-281.86428295 82.62933244 -275.59526962 77.25232398 -269 72 C-267.79154138 70.99938102 -266.58540692 69.99594054 -265.3828125 68.98828125 C-255.12551818 60.51237012 -244.18836208 53.18424954 -233 46 C-232.35659668 45.58153809 -231.71319336 45.16307617 -231.05029297 44.73193359 C-194.14067949 20.86019872 -150.27365811 5.64783733 -107 -1 C-106.13391113 -1.13970215 -105.26782227 -1.2794043 -104.37548828 -1.42333984 C-70.2334439 -6.73459126 -33.99205234 -5.940762 0 0 Z " fill="#9F9E9C" transform="translate(1068,486)"/>
<path d="M0 0 C-0.06783691 1.15983398 -0.13567383 2.31966797 -0.20556641 3.51464844 C-2.3770976 41.78390788 -1.03179044 79.5710903 8 117 C8.26989746 118.14694336 8.53979492 119.29388672 8.81787109 120.47558594 C11.24184111 130.60288759 14.20631574 140.49859894 17.5 150.375 C17.75811462 151.15181122 18.01622925 151.92862244 18.28216553 152.72897339 C23.17152348 167.34683584 29.05675659 181.22448927 36 195 C36.64533691 196.30275879 36.64533691 196.30275879 37.30371094 197.63183594 C51.52040132 226.23168848 70.39850734 252.2760837 91.96484375 275.77734375 C94.82231912 278.89807981 97.59398872 282.09288804 100.37109375 285.28515625 C101.90408701 287.09391741 101.90408701 287.09391741 104 288 C104 288.66 104 289.32 104 290 C104.81791016 290.32291016 104.81791016 290.32291016 105.65234375 290.65234375 C108.80379225 292.46141153 111.07822067 294.95733116 113.5625 297.5625 C119.05182063 303.16873907 124.80080471 308.17927889 131 313 C131.89017822 313.70479492 131.89017822 313.70479492 132.79833984 314.42382812 C173.15364253 346.36540205 218.97562978 369.82301514 269 382 C270.03382813 382.25813477 271.06765625 382.51626953 272.1328125 382.78222656 C285.49363924 386.09370911 298.84972911 388.61062593 312.5 390.3125 C313.74249512 390.47186035 314.98499023 390.6312207 316.26513672 390.79541016 C329.55214993 392.3323724 342.5112298 392.50041592 356 393 C356 498.6 356 604.2 356 713 C353.15581435 710.15581435 351.572449 707.75750936 349.5625 704.3125 C335.23518956 680.48220876 315.20889707 657.71450847 293 641 C292.37996094 640.52530273 291.75992188 640.05060547 291.12109375 639.56152344 C255.92254592 612.72847488 215.13178484 597.51615554 171.6875 590.3125 C170.47932617 590.10979492 169.27115234 589.90708984 168.02636719 589.69824219 C147.85618463 586.51123629 127.6479594 585.56340185 107.25 585.5625 C106.06832245 585.56043549 104.8866449 585.55837097 103.66915894 585.5562439 C68.55231016 585.56705007 33.63232889 589.0180698 -1.19360352 593.29711914 C-6.48377123 593.94443556 -11.77810468 594.53724175 -17.078125 595.09765625 C-17.84995621 595.17943619 -18.62178741 595.26121613 -19.41700745 595.34547424 C-22.4725674 595.66782871 -25.52839096 595.98756194 -28.58447266 596.30493164 C-37.017072 597.18336404 -45.38424746 598.1756047 -53.7578125 599.51977539 C-59.3670961 600.35060829 -65.00870216 600.88753078 -70.64892578 601.4602356 C-87.80294729 603.21152423 -104.89993589 605.35103994 -122 607.5625 C-137.16507962 609.52149724 -152.31459669 611.46074622 -167.53540039 612.93774414 C-178.02267676 613.96446502 -188.47718038 615.23263307 -198.9375 616.5 C-212.69103699 618.16595344 -226.44292528 619.72944056 -240.23803711 621.01171875 C-247.17027321 621.6664271 -254.03336412 622.54258592 -260.91503906 623.60864258 C-263.65638745 623.95640939 -266.24200394 624.07553952 -269 624 C-268.75747673 619.13315851 -268.50886257 614.26667318 -268.25537109 609.40039062 C-268.17049448 607.75626384 -268.08708515 606.11206044 -268.00537109 604.46777344 C-267.54450771 595.21636775 -266.9479574 585.99874507 -266.06640625 576.77734375 C-264.81574209 563.62971755 -263.97599496 550.45572703 -263.11361694 537.27825928 C-262.57652347 529.07686161 -262.02757345 520.87625417 -261.4765625 512.67578125 C-261.41803541 511.80426926 -261.35950832 510.93275726 -261.29920769 510.03483582 C-260.37402943 496.28445014 -259.40132088 482.53789431 -258.3984375 468.79296875 C-258.32962561 467.84962992 -258.26081371 466.90629108 -258.18991661 465.93436623 C-257.83480038 461.06854747 -257.47911021 456.20277078 -257.1232605 451.33700562 C-254.18825228 411.19244661 -251.4193795 371.03798627 -248.75 330.875 C-248.6660989 329.61377068 -248.5821978 328.35254135 -248.49575424 327.05309296 C-247.02415573 304.92863471 -245.55336788 282.80410596 -244.15234375 260.67504883 C-244.08462391 259.60670303 -244.01690407 258.53835724 -243.94713211 257.43763733 C-243.63161589 252.45534135 -243.31783756 247.47294762 -243.00750732 242.49032593 C-242.28466111 230.96271062 -241.44090734 219.44929846 -240.5 207.9375 C-239.33817528 193.6321634 -238.31227509 179.32189602 -237.375 165 C-237.31256104 164.05679901 -237.25012207 163.11359802 -237.18579102 162.14181519 C-236.43840846 150.81308869 -235.79217794 139.48833543 -235.37338257 128.14208984 C-235.20514275 123.96510119 -234.84537378 120.09730664 -234 116 C-233.69645895 112.76656227 -233.50980023 109.52680437 -233.31640625 106.28515625 C-233.25661087 105.32981995 -233.19681549 104.37448364 -233.13520813 103.39019775 C-232.94121067 100.28114855 -232.75185065 97.17183535 -232.5625 94.0625 C-232.36302107 90.84546609 -232.16240506 87.62850435 -231.96173096 84.4115448 C-231.82847981 82.27404719 -231.69562608 80.13652477 -231.56317139 77.99897766 C-230.96384089 68.34363544 -230.32015106 58.691729 -229.64672852 49.04125977 C-228.96329773 39.03426485 -228.48204125 29.01831972 -228 19 C-227.17414398 18.96360916 -227.17414398 18.96360916 -226.331604 18.92648315 C-189.38011256 17.27959771 -152.63239045 14.49817346 -115.80917358 11.08270264 C-107.66223184 10.32804059 -99.51345233 9.60691215 -91.359375 8.93359375 C-67.92650869 6.99141001 -44.56846597 4.60887095 -21.20751953 1.9296875 C-20.08891541 1.80184875 -18.97031128 1.67401001 -17.81781006 1.54229736 C-15.71570123 1.30136332 -13.61383786 1.05827452 -11.51226807 0.81268311 C-10.57799988 0.70530823 -9.64373169 0.59793335 -8.68115234 0.48730469 C-7.86947601 0.39278015 -7.05779968 0.29825562 -6.2215271 0.2008667 C-4.15503424 0.01401793 -2.07492294 0 0 0 Z " fill="#1B232F" transform="translate(661,782)"/>
<path d="M0 0 C1.19431641 0.19835449 2.38863281 0.39670898 3.61914062 0.60107422 C65.79457631 11.15679041 125.07527214 41.50366983 171.11328125 84.3359375 C173.6204648 86.64973883 176.17354394 88.88948201 178.75 91.125 C189.77554133 101.02839415 199.96351371 112.26701336 209 124 C209.45294434 124.58571777 209.90588867 125.17143555 210.37255859 125.77490234 C226.28647165 146.42578524 239.89722886 168.38360836 251 192 C251.42974121 192.90733887 251.42974121 192.90733887 251.86816406 193.83300781 C264.66175246 221.12308546 273.08817924 250.31077228 278 280 C278.14421387 280.85851562 278.28842773 281.71703125 278.43701172 282.6015625 C278.86646917 285.19086729 279.28089427 287.78201432 279.6875 290.375 C279.80706055 291.12249512 279.92662109 291.86999023 280.04980469 292.64013672 C281.93501787 305.27652941 282.2095447 318.05671776 282.1875 330.8125 C282.18656342 331.52410278 282.18562683 332.23570557 282.18466187 332.96887207 C282.11758932 356.74625345 279.54381592 379.65335943 275 403 C274.73195557 404.42892578 274.73195557 404.42892578 274.45849609 405.88671875 C265.59159792 452.47406488 244.55649421 501.04793637 214.4140625 537.6875 C212.80907936 539.84391552 212.80907936 539.84391552 213.046875 542.078125 C214.23680306 544.47748813 215.66772101 545.92119106 217.625 547.75 C220.24360633 550.26735969 222.72855688 552.77995483 225.0625 555.5625 C226.36789066 557.04794455 227.68207146 558.52566807 229 560 C229.8036499 560.91483154 229.8036499 560.91483154 230.62353516 561.84814453 C232.51039602 563.97017207 234.43828069 566.04845574 236.375 568.125 C236.98738525 568.82568604 237.59977051 569.52637207 238.23071289 570.24829102 C240.07837079 572.18737139 241.65909701 573.69364266 244 575 C246.43503271 574.98903518 248.29886629 574.4574207 250.61230469 573.70898438 C254.81693675 572.4604924 259.08273807 572.67157183 263.4375 572.6875 C264.31470703 572.67138672 265.19191406 572.65527344 266.09570312 572.63867188 C281.86801603 572.62704895 293.4850707 579.97938942 304.37938213 590.77839375 C306.49578556 592.90391758 308.59964611 595.04137852 310.703125 597.1796875 C312.19418235 598.6775483 313.68628727 600.17436695 315.17938232 601.67019653 C319.0874526 605.59160796 322.97987369 609.52820788 326.86950684 613.46789551 C330.0375997 616.67140421 333.21684184 619.86371754 336.39671707 623.05552483 C340.21106853 626.88472501 344.0202514 630.71904667 347.828125 634.5546875 C348.54576271 635.27723598 349.26340042 635.99978447 350.00278473 636.74422836 C352.05050742 638.80839163 354.09469596 640.87598707 356.13769531 642.94482422 C356.73109711 643.54248596 357.3244989 644.14014771 357.93588257 644.75592041 C360.87298449 647.73766089 363.70101666 650.77344144 366.43667603 653.94163513 C370.0746802 658.14069814 373.93804335 662.07189832 377.87548828 665.98901367 C379.00614212 667.11988655 379.00614212 667.11988655 380.15963745 668.27360535 C382.62749698 670.74077379 385.09887042 673.20438953 387.5703125 675.66796875 C389.29732822 677.39311652 391.02412116 679.11848733 392.7507019 680.84407043 C397.28060454 685.37017001 401.81350074 689.89325978 406.3470459 694.41571045 C410.95843373 699.01686516 415.5669924 703.62085163 420.17578125 708.22460938 C427.61718269 715.65723622 435.06031508 723.08812432 442.50567627 730.51678467 C443.78115824 731.78944412 445.05630745 733.06243719 446.33104706 734.33584023 C447.77725222 735.77789194 449.22902246 737.21435844 450.68179321 738.64979553 C453.10286591 741.10428575 455.40598388 743.63777567 457.70800781 746.20410156 C464.62106592 753.81412972 471.92206263 761.03508476 479.20915985 768.28432465 C481.72638437 770.78860405 484.24031244 773.29615302 486.753479 775.80450439 C492.082821 781.12251349 497.41611448 786.43654852 502.75 791.75 C508.95124321 797.92755466 515.15080816 804.10677488 521.34616852 810.2902298 C523.81179058 812.74941481 526.28042487 815.20554763 528.74920654 817.66156006 C530.2701277 819.17884657 531.79090744 820.69627485 533.31152344 822.21386719 C534.3278611 823.22245537 534.3278611 823.22245537 535.36473083 824.25141907 C539.22641611 828.11268005 542.8792576 832.09385339 546.44792747 836.22697449 C548.29440948 838.33632161 550.23474074 840.31567188 552.24780273 842.26611328 C553.00226181 843.00113068 553.75672089 843.73614807 554.53404236 844.49343872 C555.32589432 845.26130707 556.11774628 846.02917542 556.93359375 846.8203125 C558.65245486 848.50703618 560.37052936 850.19456176 562.08789062 851.8828125 C564.75743275 854.5031679 567.43097962 857.11868685 570.1184082 859.72070312 C586.1072771 875.22328004 598.88939056 889.70696232 599.36132812 913.07397461 C599.4416597 929.53190558 595.34150521 943.89921426 585 957 C584.52820312 957.63550781 584.05640625 958.27101563 583.5703125 958.92578125 C575.34292011 969.40757212 561.10833404 977.0591305 548 979 C529.1228131 980.52796074 510.22173938 978.28996099 495.21508789 965.65527344 C494.28946045 964.79450195 493.36383301 963.93373047 492.41015625 963.046875 C491.89890701 962.57174973 491.38765778 962.09662445 490.86091614 961.60710144 C485.39530678 956.49440024 480.07928978 951.23058287 474.7980957 945.9284668 C473.17447771 944.29943428 471.54550397 942.67589272 469.91601562 941.05273438 C461.28484803 932.42665016 461.28484803 932.42665016 457.578125 928.078125 C452.81867039 922.51110167 447.56049737 917.41186264 442.37573242 912.24536133 C440.56639067 910.44137915 438.76245681 908.63211335 436.95898438 906.82226562 C431.72036177 901.5808007 426.48299046 896.41770109 420.83959961 891.6081543 C417.23991439 888.46135582 413.88107175 885.06544112 410.5 881.6875 C409.77296875 880.97271484 409.0459375 880.25792969 408.296875 879.52148438 C407.26820313 878.49571289 407.26820313 878.49571289 406.21875 877.44921875 C405.59935547 876.83393311 404.97996094 876.21864746 404.34179688 875.5847168 C403 874 403 874 403 872 C402.34 872 401.68 872 401 872 C399.66537476 870.64537048 399.66537476 870.64537048 398.07177734 868.70288086 C393.29501284 863.09211345 388.07085478 857.94659598 382.8515625 852.75390625 C381.73852542 851.64279206 380.62571855 850.53144723 379.51312256 849.41989136 C377.13068737 847.04059947 374.74671204 844.66286579 372.36151123 842.28634644 C368.58409387 838.52253596 364.81056919 834.75483865 361.03759766 830.98657227 C353.02803267 822.98807266 345.01424102 814.99381395 337 807 C328.34576944 798.36782774 319.69228375 789.73491653 311.04368401 781.09710217 C307.29879542 777.35717281 303.55148788 773.6196899 299.80226135 769.8841095 C297.46440751 767.55375478 295.12866309 765.22129431 292.79346466 762.88827896 C291.71687667 761.81355089 290.63943074 760.73968138 289.56102753 759.66677475 C284.34593615 754.47741279 279.20425 749.2790479 274.4750061 743.63539124 C272.94811415 741.94247233 271.34067092 740.54836824 269.5625 739.125 C268.716875 738.42375 267.87125 737.7225 267 737 C267 736.34 267 735.68 267 735 C266.34 735 265.68 735 265 735 C263.66564941 733.64070129 263.66564941 733.64070129 262.07226562 731.69458008 C257.78545733 726.65766316 253.11402823 722.04590412 248.39924622 717.41577721 C246.80529693 715.84891924 245.21613848 714.27734497 243.6282959 712.70429993 C239.11898901 708.23729263 234.60700508 703.77310866 230.07861328 699.32543945 C227.29304151 696.58884119 224.51772106 693.84218762 221.74848938 691.08905983 C220.70295922 690.05331251 219.65381498 689.02119821 218.60075378 687.99310875 C209.29258678 678.90089424 202.13269899 669.45685571 198 657 C197.64035156 655.94167969 197.28070312 654.88335938 196.91015625 653.79296875 C195.82846669 649.28515518 195.7060251 645.17619944 195.75 640.5625 C195.74226563 639.75490234 195.73453125 638.94730469 195.7265625 638.11523438 C195.73943725 634.12084396 196.00340521 630.57135086 197.078125 626.71484375 C198.02849418 622.88517811 198.26967612 621.6331711 197 618 C195.17382118 615.581545 193.06718285 613.48285359 190.91796875 611.3515625 C190.30738113 610.73477631 189.69679352 610.11799011 189.06770325 609.48251343 C187.77727914 608.18499902 186.48171094 606.89258302 185.18139648 605.60498047 C183.18911752 603.62660623 181.22204692 601.6253619 179.25585938 599.62109375 C177.99884751 598.36313108 176.74043059 597.1065705 175.48046875 595.8515625 C174.59744331 594.94864975 174.59744331 594.94864975 173.69657898 594.02749634 C171.86020748 592.17463498 171.86020748 592.17463498 169 590 C165.19705724 590.45852899 163.46059284 592.18246674 160.75 594.8125 C143.12358897 611.07710376 122.14318528 623.86088752 101 635 C100.02764404 635.51506104 100.02764404 635.51506104 99.03564453 636.04052734 C94.40919425 638.4728199 89.72846494 640.77296598 85 643 C84.17999512 643.38655762 83.35999023 643.77311523 82.51513672 644.17138672 C66.76543392 651.50379683 50.63965961 657.05014621 34 662 C33.13455566 662.26151855 32.26911133 662.52303711 31.37744141 662.79248047 C21.24085603 665.81729296 10.97551343 667.84931397 0.5625 669.6875 C-0.57952881 669.89020508 -1.72155762 670.09291016 -2.89819336 670.30175781 C-20.79937134 673.31695798 -38.54860956 674.38103438 -56.6875 674.3125 C-57.69502319 674.31067719 -58.70254639 674.30885437 -59.74060059 674.30697632 C-75.03642547 674.26048859 -89.90890212 673.68280469 -105 671 C-106.60560791 670.72663818 -106.60560791 670.72663818 -108.24365234 670.44775391 C-122.05273501 668.06907036 -135.62299752 665.18065776 -149 661 C-150.32402832 660.59273682 -150.32402832 660.59273682 -151.67480469 660.17724609 C-200.11158104 645.14142128 -244.14929909 620.20017941 -281.25390625 585.5625 C-283.90763092 583.08619362 -286.60155682 580.66335092 -289.3125 578.25 C-295.22422818 572.9332221 -300.76444049 567.42346263 -305.9453125 561.390625 C-307.4875053 559.59628661 -309.04791375 557.81757791 -310.6171875 556.046875 C-331.50752933 532.33504487 -348.34528969 505.44707673 -362 477 C-362.52505127 475.92210205 -363.05010254 474.8442041 -363.59106445 473.73364258 C-368.01908072 464.53827947 -371.71099504 455.19838416 -375.0625 445.5625 C-375.32146057 444.82034241 -375.58042114 444.07818481 -375.847229 443.3135376 C-384.87518044 417.32078345 -389.37873951 391.20967112 -393 364 C-393.1244751 363.10506836 -393.2489502 362.21013672 -393.37719727 361.28808594 C-394.47348325 352.26124145 -394.2884374 343.07899504 -394.3125 334 C-394.31511841 333.05569122 -394.31773682 332.11138245 -394.32043457 331.13845825 C-394.32738276 307.58981057 -392.52493535 283.91740814 -386.52978516 261.06054688 C-385.95477934 258.82411873 -385.43381185 256.57890967 -384.91796875 254.328125 C-378.42973513 226.46394941 -367.97953917 199.95002954 -354 175 C-353.54882812 174.13890625 -353.09765625 173.2778125 -352.6328125 172.390625 C-343.96641545 155.87831819 -333.65833213 140.52448703 -322 126 C-321.20980469 124.99710938 -320.41960937 123.99421875 -319.60546875 122.9609375 C-310.6095946 111.71204262 -300.56797534 101.46814635 -290.4375 91.25 C-289.57543945 90.3748877 -288.71337891 89.49977539 -287.82519531 88.59814453 C-281.86428295 82.62933244 -275.59526962 77.25232398 -269 72 C-267.79154138 70.99938102 -266.58540692 69.99594054 -265.3828125 68.98828125 C-255.12551818 60.51237012 -244.18836208 53.18424954 -233 46 C-232.35659668 45.58153809 -231.71319336 45.16307617 -231.05029297 44.73193359 C-194.14067949 20.86019872 -150.27365811 5.64783733 -107 -1 C-106.13391113 -1.13970215 -105.26782227 -1.2794043 -104.37548828 -1.42333984 C-70.2334439 -6.73459126 -33.99205234 -5.940762 0 0 Z M-100 64 C-100.9811377 64.17692383 -101.96227539 64.35384766 -102.97314453 64.53613281 C-130.86333797 69.68632321 -156.95015133 78.66830243 -182 92 C-183.06613525 92.5580835 -183.06613525 92.5580835 -184.15380859 93.12744141 C-195.76213155 99.22733208 -206.50364255 106.14581127 -217 114 C-217.62390625 114.4655127 -218.2478125 114.93102539 -218.890625 115.41064453 C-227.76424 122.08244641 -236.01850982 129.28960309 -244 137 C-244.70737305 137.6801416 -245.41474609 138.3602832 -246.14355469 139.06103516 C-255.89426436 148.48061223 -265.12044667 157.94940692 -273 169 C-273.51369141 169.71768555 -274.02738281 170.43537109 -274.55664062 171.17480469 C-281.87798492 181.47940138 -288.69501675 192.01951921 -294.89306641 203.03710938 C-295.92805069 204.87241455 -296.98414474 206.69401449 -298.04296875 208.515625 C-309.7230488 229.31129646 -317.73411129 252.59126394 -322.6875 275.875 C-322.87803955 276.77033447 -323.0685791 277.66566895 -323.26489258 278.58813477 C-323.89486048 281.71817607 -324.45768373 284.85349385 -325 288 C-325.1267511 288.72581268 -325.2535022 289.45162537 -325.38409424 290.19943237 C-327.8144468 304.43603693 -328.56305681 318.38366005 -328.5 332.8125 C-328.49856995 333.87661102 -328.49713989 334.94072205 -328.4956665 336.03707886 C-328.43463278 354.48529915 -326.95354506 371.94986178 -323 390 C-322.75942871 391.12132324 -322.51885742 392.24264648 -322.27099609 393.39794922 C-319.50400059 406.00438814 -315.93921551 418.08348655 -311 430 C-310.39793465 431.49849598 -309.79639522 432.99720334 -309.1953125 434.49609375 C-307.2179469 439.37025951 -305.13711141 444.19390816 -303 449 C-302.65549805 449.77794922 -302.31099609 450.55589844 -301.95605469 451.35742188 C-296.91002127 462.54908603 -290.73160164 472.86240562 -283.9375 483.0625 C-283.56240295 483.62759277 -283.18730591 484.19268555 -282.80084229 484.77490234 C-277.61243549 492.5536844 -272.03211006 499.86002477 -266 507 C-264.984304 508.22650371 -263.96866905 509.45305798 -262.953125 510.6796875 C-257.93053878 516.64922915 -252.763672 522.41575291 -247.25 527.9375 C-246.7437207 528.44458496 -246.23744141 528.95166992 -245.71582031 529.47412109 C-241.63319179 533.49744739 -237.34586893 537.2646863 -233 541 C-232.35998047 541.55212158 -231.71996094 542.10424316 -231.06054688 542.6730957 C-220.56938331 551.65887828 -209.70130955 559.6629486 -198 567 C-197.31502441 567.4326416 -196.63004883 567.8652832 -195.92431641 568.31103516 C-176.17304423 580.678743 -155.07574 589.67282025 -133 597 C-131.13214844 597.62841797 -131.13214844 597.62841797 -129.2265625 598.26953125 C-121.65185832 600.6167544 -113.89951251 602.09878328 -106.125 603.625 C-104.54730835 603.9348584 -104.54730835 603.9348584 -102.93774414 604.25097656 C-87.30164472 607.20412855 -72.19412553 608.40819429 -56.3125 608.375 C-54.90493439 608.37468277 -54.90493439 608.37468277 -53.46893311 608.37435913 C-36.99934027 608.33750542 -21.20094388 607.1355822 -5 604 C-4.07783691 603.82871582 -3.15567383 603.65743164 -2.20556641 603.48095703 C22.81052748 598.69122855 46.47008595 588.63270311 69 577 C69.82677246 576.57750977 70.65354492 576.15501953 71.50537109 575.71972656 C94.60277017 563.80870547 116.08117443 547.82823965 134 529 C135.18335938 527.81857422 135.18335938 527.81857422 136.390625 526.61328125 C155.55737241 507.4178411 171.19946465 485.88765957 184 462 C184.50611816 461.0716333 184.50611816 461.0716333 185.02246094 460.12451172 C191.63620779 447.91972911 196.34175744 435.05246605 201 422 C201.39662842 420.91090332 201.39662842 420.91090332 201.80126953 419.79980469 C210.34786741 396.29220606 215.07672506 370.76112189 215.203125 345.7421875 C215.21013931 344.80404709 215.21715363 343.86590668 215.22438049 342.89933777 C215.24176943 339.89117564 215.2482321 336.88321053 215.25 333.875 C215.25067474 332.84599579 215.25134949 331.81699158 215.25204468 330.75680542 C215.23594707 315.30686445 214.83368335 300.23173313 212 285 C211.82307617 284.03739258 211.64615234 283.07478516 211.46386719 282.08300781 C210.18404656 275.33466172 208.68056718 268.65935333 207 262 C206.79036621 261.16726563 206.58073242 260.33453125 206.36474609 259.4765625 C192.91021709 207.60567625 160.36171192 157.01980874 118 124 C116.94514613 123.14503777 115.89182817 122.28817796 114.83984375 121.4296875 C88.83862074 100.36339049 59.41129329 85.24275178 28 74 C27.01894287 73.63696777 27.01894287 73.63696777 26.01806641 73.26660156 C-12.54980786 59.10390414 -59.76986152 56.63622532 -100 64 Z " fill="#0D161D" transform="translate(1068,486)"/>
<path d="M0 0 C0.74039017 0.00037766 1.48078033 0.00075531 2.24360657 0.00114441 C3.02712997 0.02695084 3.81065338 0.05275726 4.61791992 0.0793457 C5.43209885 0.08642044 6.24627777 0.09349518 7.08512878 0.1007843 C9.6738351 0.12867097 12.2603414 0.19139379 14.84838867 0.25512695 C16.60812295 0.28021745 18.3678913 0.30302931 20.12768555 0.32348633 C24.43126164 0.37847824 28.73320277 0.46470704 33.03588867 0.56762695 C32.62973377 21.27492279 32.11306511 41.97315155 31.24850464 62.66685295 C31.02256448 68.08443972 30.80364026 73.50231154 30.58422852 78.92016602 C30.53864681 80.04352324 30.49306511 81.16688047 30.44610214 82.32427883 C29.62896271 102.54633481 28.89896081 122.77180576 28.163517 142.99696732 C28.03356705 146.56894221 27.90319954 150.14090172 27.77279663 153.71286011 C26.60890598 185.63444943 25.5083724 217.55644333 24.6315918 249.48730469 C24.31907767 260.78184501 23.95028513 272.06407106 23.37724304 283.34857178 C23.01493053 290.60509905 22.84074726 297.85702641 22.7048645 305.12072754 C22.3173122 325.03247115 21.4612676 344.92231777 20.59838867 364.81762695 C19.47796556 390.66181853 18.56765537 416.50339426 17.8550415 442.36193848 C17.73940338 446.5555342 17.62277657 450.74910088 17.50463867 454.94262695 C17.48566906 455.61605385 17.46669945 456.28948074 17.447155 456.98331451 C17.02915442 471.69434651 16.43882611 486.39698388 15.73291016 501.09692383 C14.79347317 521.58870189 14.50248955 542.03718817 14.03588867 562.56762695 C221.60588867 562.56762695 429.17588867 562.56762695 643.03588867 562.56762695 C645.01588867 566.19762695 646.99588867 569.82762695 649.03588867 573.56762695 C660.59223776 588.83851683 678.05562616 596.34257774 696.64526367 599.0637207 C718.30700533 601.78825653 741.66948063 597.7750741 760.03588867 585.56762695 C768.45080811 578.99690611 774.27878958 572.08182513 779.03588867 562.56762695 C986.93588867 562.56762695 1194.83588867 562.56762695 1409.03588867 562.56762695 C1407.61232744 506.33695821 1406.06838532 450.13507243 1403.84451294 393.93582153 C1403.20839456 377.8453809 1402.67754092 361.75579033 1402.33909607 345.65615845 C1402.19309672 339.87789199 1401.9631819 334.13368714 1401.56323242 328.36669922 C1400.98265731 319.51101446 1400.69684694 310.65185188 1400.43570137 301.78183556 C1400.34944201 298.85763153 1400.25970197 295.93355056 1400.16917419 293.00947571 C1399.91271686 284.70437197 1399.66268282 276.39907697 1399.41357422 268.09375 C1399.22988792 261.98467496 1399.04274568 255.8757136 1398.85229492 249.7668457 C1398.82097662 248.76082621 1398.78965832 247.75480671 1398.75739098 246.71830177 C1398.23467652 230.11180166 1397.53754438 213.51723636 1396.70606995 196.92338562 C1396.17678026 186.28473788 1395.81607407 175.65465803 1395.59838867 165.00512695 C1395.56046964 163.29287639 1395.52215651 161.58063443 1395.4831543 159.8684082 C1395.46667847 159.14508301 1395.45020264 158.42175781 1395.43322754 157.67651367 C1395.03187222 140.94575655 1394.29000688 124.22582421 1393.59838867 107.50512695 C1393.5317631 105.89122583 1393.46515338 104.27732406 1393.39855957 102.66342163 C1393.26568806 99.44413581 1393.13277449 96.22485173 1392.99981689 93.00556946 C1392.96706917 92.21257257 1392.93432144 91.41957569 1392.90058136 90.6025486 C1392.83455361 89.00416727 1392.76848816 87.4057875 1392.70238495 85.80740929 C1392.1023674 71.29386147 1391.52351951 56.77966736 1390.97824097 42.26394653 C1390.89293157 39.99980895 1390.80663788 37.73570821 1390.7192688 35.47164917 C1390.28362785 24.1649465 1389.89190244 12.88469835 1390.03588867 1.56762695 C1395.39271 1.49350646 1400.74923329 1.4390392 1406.10644531 1.40283203 C1407.92908934 1.38773935 1409.75169703 1.367263 1411.57421875 1.34130859 C1414.19304367 1.30494593 1416.81138875 1.28790571 1419.43041992 1.2746582 C1420.24613968 1.25917435 1421.06185944 1.24369049 1421.90229797 1.22773743 C1427.57287763 1.226048 1427.57287763 1.226048 1429.75190504 2.83359044 C1431.32222558 4.95432865 1431.410182 6.03301469 1431.40848416 8.65278739 C1431.41522604 9.48947783 1431.42196792 10.32616827 1431.4289141 11.18821296 C1431.42103306 12.10924793 1431.41315202 13.0302829 1431.40503216 13.97922802 C1431.40849369 14.96025792 1431.41195522 15.94128781 1431.41552165 16.95204589 C1431.4235237 20.27133709 1431.40995286 23.59020018 1431.39665222 26.9094696 C1431.39795926 29.30031923 1431.4005838 31.69116843 1431.40441972 34.08201534 C1431.40974661 39.29658171 1431.40569385 44.51105566 1431.3935051 49.72560692 C1431.375431 57.47949145 1431.37449479 65.23331108 1431.37713106 72.98721284 C1431.38107684 86.02924697 1431.37103312 99.07123558 1431.35307884 112.11325645 C1431.33534153 125.03072014 1431.32378379 137.94816487 1431.3205204 150.86564064 C1431.32031418 151.66812921 1431.32010796 152.47061777 1431.3198955 153.29742418 C1431.31888053 157.37268329 1431.31797636 161.44794242 1431.31711487 165.52320156 C1431.31080983 194.40529182 1431.29058716 223.2873573 1431.26220703 252.16943359 C1431.23466402 280.23193225 1431.21340814 308.29442413 1431.20068359 336.35693359 C1431.20028902 337.22159739 1431.19989444 338.08626118 1431.1994879 338.97712691 C1431.19553242 347.66025656 1431.19170497 356.34338626 1431.18797132 365.026516 C1431.18036222 382.71582324 1431.17189846 400.40513005 1431.16291809 418.09443665 C1431.16250622 418.90780286 1431.16209435 419.72116908 1431.16167 420.55918276 C1431.13405744 474.89534123 1431.08645832 529.23148559 1431.03588867 583.56762695 C1425.55589582 585.8544984 1420.61121445 585.84663119 1414.78001976 585.81651592 C1413.74411556 585.81912321 1412.70821135 585.82173049 1411.64091611 585.82441679 C1408.15291395 585.83073727 1404.66509043 585.82274071 1401.17709351 585.81486511 C1398.65766572 585.81645271 1396.13823837 585.81891582 1393.6188122 585.82218152 C1388.13208656 585.82726613 1382.64541636 585.82611286 1377.15869331 585.81949615 C1368.9990732 585.80968329 1360.83948341 585.81130982 1352.67985979 585.81524645 C1338.94913777 585.82152577 1325.21843293 585.81834465 1311.48771286 585.80965233 C1297.87774878 585.80103852 1284.2677924 585.79613215 1270.65782547 585.79631996 C1269.388052 585.79633143 1269.388052 585.79633143 1268.09262655 585.79634313 C1264.65624052 585.79638404 1261.21985448 585.79644965 1257.78346845 585.79654894 C1225.52774501 585.79745553 1193.2720333 585.78750445 1161.01631393 585.77211928 C1132.38318869 585.75851218 1103.7500718 585.75225726 1075.11694336 585.75292969 C1073.28043438 585.7529701 1071.44392541 585.75301046 1069.60741644 585.75305077 C1068.24549528 585.75308129 1068.24549528 585.75308129 1066.85606057 585.75311244 C1062.28519666 585.75321324 1057.71433276 585.75330382 1053.14346886 585.75338268 C1051.79072149 585.75340775 1051.79072149 585.75340775 1050.41064589 585.75343333 C1026.47070931 585.75379906 1002.53077378 585.74925344 978.59083807 585.74305612 C977.73840344 585.74283585 976.8859688 585.74261557 976.00770281 585.74238863 C972.58007376 585.74150043 969.15244471 585.740612 965.72481567 585.73969767 C953.82370153 585.73654416 941.92258821 585.73502923 930.02147367 585.73458618 C914.66989752 585.73398743 899.31832824 585.72996127 883.96675502 585.72015473 C875.85696814 585.71506285 867.74719133 585.71262255 859.63740294 585.71415091 C853.56516396 585.71497804 847.49294044 585.71053048 841.42070432 585.70410041 C838.97639931 585.70230011 836.53209238 585.70214393 834.08778732 585.7038677 C820.03691073 585.71267362 806.06166865 585.43189097 792.03588867 584.56762695 C791.73497314 585.34775146 791.43405762 586.12787598 791.12402344 586.93164062 C787.76421433 595.07071601 780.7021309 601.10501179 774.03588867 606.56762695 C773.37588867 607.11418945 772.71588867 607.66075195 772.03588867 608.22387695 C764.17400068 614.43730456 755.71479348 617.88532685 746.14135742 620.6574707 C743.47926188 621.43768235 740.89338524 622.31315175 738.28588867 623.25512695 C729.56729752 626.13859749 720.31807735 625.75397391 711.234375 625.75292969 C709.10616113 625.75511896 706.97846468 625.77334258 704.8503418 625.79223633 C695.06332402 625.83290883 686.20660255 625.12386026 677.11791992 621.34887695 C674.87322693 620.46613802 674.87322693 620.46613802 671.80541992 619.7199707 C655.75107531 614.81216587 639.06450322 603.58113616 631.03588867 588.56762695 C630.67980228 587.24018906 630.34276126 585.90729785 630.03588867 584.56762695 C629.17894437 584.5798601 628.32200006 584.59209326 627.43908775 584.60469711 C577.93927162 585.30233191 528.44352798 585.66982095 478.9387207 585.69702148 C478.27910651 585.69738575 477.61949233 585.69775001 476.93988983 585.69812531 C459.51950022 585.70749055 442.0991147 585.70696336 424.67872364 585.7029264 C414.33978946 585.70057803 404.00085683 585.7003441 393.66192245 585.70144272 C392.5432144 585.7015573 392.5432144 585.7015573 391.40190618 585.70167419 C388.37219983 585.70198569 385.34249348 585.70230411 382.31278713 585.70263395 C354.23226392 585.70565456 326.15174397 585.70297675 298.07122127 585.69753706 C273.18379098 585.69275282 248.2963658 585.69325591 223.40893555 585.69799805 C195.23603134 585.70334872 167.06312994 585.70548195 138.89022529 585.70238578 C135.89404988 585.70206515 132.89787448 585.70175231 129.90169907 585.70144272 C129.164317 585.70136364 128.42693494 585.70128456 127.66720797 585.70120309 C116.55963328 585.70006819 105.45206064 585.70139018 94.34448624 585.70392227 C81.77548782 585.70677379 69.20649568 585.7059841 56.63749798 585.70064153 C50.23234975 585.69800832 43.82721198 585.69699366 37.42206383 585.70029068 C31.56822057 585.70325886 25.71439752 585.70165224 19.86055611 585.69631313 C17.73870611 585.6951917 15.61685442 585.69577409 13.4950055 585.69818892 C10.62236859 585.70120916 7.74980184 585.6981316 4.87716866 585.69346809 C4.04515627 585.69580926 3.21314389 585.69815043 2.355919 585.70056254 C-1.54077872 585.68783137 -5.17700461 585.5246714 -8.96411133 584.56762695 C-9.04967774 529.43814381 -9.12928411 474.30865438 -9.17582703 419.17912292 C-9.17651731 418.36357517 -9.1772076 417.54802742 -9.1779188 416.7077661 C-9.1928823 398.98498459 -9.20673336 381.26220237 -9.21943798 363.5394191 C-9.22567482 354.84854487 -9.23215757 346.15767083 -9.23876953 337.46679688 C-9.23942333 336.60193675 -9.24007712 335.73707663 -9.24075073 334.84600862 C-9.26206878 306.79838294 -9.29963374 278.75080753 -9.34559743 250.70321233 C-9.39273377 221.8878115 -9.42353235 193.07243851 -9.43368628 164.25699978 C-9.43512712 160.18979816 -9.4367553 156.12259663 -9.43849754 152.05539513 C-9.43883466 151.25488811 -9.43917177 150.4543811 -9.4395191 149.6296163 C-9.44543454 136.72819891 -9.4686432 123.82686743 -9.4982715 110.92548512 C-9.52766915 97.96458058 -9.53896094 85.00376145 -9.53161822 72.04282472 C-9.52780672 64.33638134 -9.53803002 56.63024985 -9.56809904 48.92386261 C-9.58899161 43.17828279 -9.58395326 37.43296415 -9.5686058 31.68737765 C-9.56648255 29.35620544 -9.57291715 27.02500741 -9.58852724 24.6938865 C-9.60844579 21.53717229 -9.59787069 18.38201144 -9.57935047 15.22532368 C-9.59248554 14.30954273 -9.60562061 13.39376179 -9.61915371 12.45022991 C-9.55905684 7.95125424 -9.42106443 6.14822498 -6.55102986 2.50160044 C-4.02088333 0.61006955 -3.07416954 -0.05282078 0 0 Z " fill="#0F171E" transform="translate(312.964111328125,942.432373046875)"/>
<path d="M0 0 C0.93859863 0.13100098 1.87719727 0.26200195 2.84423828 0.39697266 C9.93259773 1.4134584 16.96853708 2.64673415 24 4 C24.63981812 4.12312561 25.27963623 4.24625122 25.93884277 4.37310791 C44.08290075 7.89154361 61.78788641 12.22346846 79.3125 18.125 C80.04786987 18.37258057 80.78323975 18.62016113 81.54089355 18.87524414 C96.35849926 23.90367356 110.77058682 29.63820824 124.875 36.4375 C125.48686157 36.73180908 126.09872314 37.02611816 126.72912598 37.3293457 C138.0948461 42.82200751 148.92496721 48.99770982 159.671875 55.625 C160.57744141 56.18316406 161.48300781 56.74132813 162.41601562 57.31640625 C165 59 165 59 167.38085938 60.83984375 C171.37579414 63.94815952 171.37579414 63.94815952 176.16650391 65.16748047 C182.94347809 64.05026462 188.5196523 59.85344812 194.125 56.125 C205.73208387 48.64088184 217.63549472 42.13495155 230 36 C230.72638672 35.63358398 231.45277344 35.26716797 232.20117188 34.88964844 C252.50940999 24.6770042 273.9684292 16.56208291 296 11 C297.22831543 10.68023193 297.22831543 10.68023193 298.48144531 10.35400391 C321.93548552 4.27247685 345.71872307 0.57367782 369.82275391 -1.69580078 C372.72172246 -1.97335686 375.61655092 -2.27546277 378.51171875 -2.58984375 C392.31960948 -4.06207581 406.11879299 -4.73218211 420 -5 C420.71724243 -5.0143811 421.43448486 -5.02876221 422.17346191 -5.0435791 C498.49649679 -6.50130102 574.95149756 1.08064138 650.86303711 8.14526367 C653.53080663 8.39317082 656.19858378 8.64099548 658.86636925 8.888731 C660.6091391 9.05072922 662.35187754 9.21306569 664.09458351 9.37574959 C673.57191441 10.25925762 683.05021859 11.10028709 692.54003906 11.83886719 C693.39117594 11.90552267 694.24231281 11.97217815 695.11924171 12.0408535 C699.14485008 12.35496629 703.17079389 12.66150434 707.19796753 12.9548645 C715.63777682 13.58908588 723.45291221 14.63984492 731.578125 17.0703125 C746.46639187 21.34672958 762.98744137 21.49205133 778.29956055 19.43164062 C783.25490488 18.85797251 787.89462087 19.27341198 792.83203125 19.85546875 C793.76657639 19.95715363 794.70112152 20.0588385 795.66398621 20.16360474 C797.67187059 20.38283968 799.67929634 20.60630955 801.6862793 20.83364868 C807.02434114 21.43785433 812.36581586 22.01039541 817.70703125 22.5859375 C818.80064972 22.70453629 819.89426819 22.82313507 821.02102661 22.94532776 C832.6687917 24.19924004 844.33156708 25.27138926 856 26.3125 C856.96813629 26.39921967 857.93627258 26.48593933 858.93374634 26.57528687 C864.28878782 27.05463518 869.64427799 27.5282115 875 28 C875 34.93 875 41.86 875 49 C667.1 49.33 459.2 49.66 245 50 C243.68 52.64 242.36 55.28 241 58 C228.41216615 74.77575563 210.33647565 83.09341315 190.02856445 86.3125 C166.86864993 89.47079834 143.88279133 85.27610604 124.87890625 71.35546875 C117.99903376 65.72648217 112.59662182 59.17885636 109 51 C109 50.34 109 49.68 109 49 C-98.57 49 -306.14 49 -520 49 C-520 34.48 -520 19.96 -520 5 C-519.67 5 -519.34 5 -519 5 C-519 12.59 -519 20.18 -519 28 C-516.90140625 27.78085938 -514.8028125 27.56171875 -512.640625 27.3359375 C-481.06252773 24.073855 -449.43720029 21.34506183 -417.81158352 18.59347534 C-411.03330973 18.00347004 -404.25540734 17.40926348 -397.47753906 16.81462097 C-369.61894872 14.37056014 -341.75948211 11.94737004 -313.88406372 9.7015686 C-298.72074295 8.47982073 -283.56353117 7.19652496 -268.40814209 5.88006592 C-171.7519187 -2.51072962 -171.7519187 -2.51072962 -140.77246094 -3.83691406 C-137.23553796 -3.98981754 -133.69997426 -4.16146477 -130.1640625 -4.3359375 C-86.89354862 -6.32542312 -42.94896146 -6.09676554 0 0 Z " fill="#726461" transform="translate(847,1456)"/>
<path d="M0 0 C1.30564911 -0.00095673 2.61129822 -0.00191345 3.95651245 -0.00289917 C6.71158034 -0.0043658 9.46661562 -0.00225717 12.22167969 0.00244141 C15.70740968 0.00810416 19.19306206 0.00487507 22.67878914 -0.00113106 C26.05669848 -0.00567422 29.43458847 -0.00246436 32.8125 0 C34.65547165 -0.00303635 34.65547165 -0.00303635 36.53567505 -0.00613403 C49.10959225 0.02714239 61.52700694 0.71966572 73.9296875 2.8828125 C74.95618408 3.06126709 75.98268066 3.23972168 77.0402832 3.42358398 C80.13216532 3.97493109 83.21896999 4.54801722 86.3046875 5.1328125 C87.18398926 5.2973291 88.06329102 5.4618457 88.96923828 5.63134766 C124.4920071 12.51624372 159.25691059 29.39340679 187.3046875 52.1328125 C189.15878526 53.61206553 191.01294692 55.0912385 192.8671875 56.5703125 C193.63160156 57.18777344 194.39601563 57.80523438 195.18359375 58.44140625 C197.19582537 60.04600347 199.23746463 61.59997378 201.3046875 63.1328125 C200.62162672 66.63864253 199.18599359 69.37748733 197.4921875 72.5078125 C194.10711683 79.19697129 192.0564796 85.86092885 190.3046875 93.1328125 C190.00433594 94.27492188 189.70398438 95.41703125 189.39453125 96.59375 C187.33456184 105.58096538 186.96470118 114.42252649 186.8671875 123.6328125 C186.84495117 124.83824707 186.82271484 126.04368164 186.79980469 127.28564453 C186.81750992 134.34314578 187.3119278 139.22380687 191.3046875 145.1328125 C193.325955 146.85323872 193.325955 146.85323872 195.5546875 147.6328125 C196.26109375 147.931875 196.9675 148.2309375 197.6953125 148.5390625 C198.22640625 148.735 198.7575 148.9309375 199.3046875 149.1328125 C199.3046875 149.4628125 199.3046875 149.7928125 199.3046875 150.1328125 C198.2528125 150.3803125 197.2009375 150.6278125 196.1171875 150.8828125 C191.2181295 152.31789009 188.2968241 154.42851127 185.69116211 158.90454102 C183.34285885 164.67709977 183.85720232 170.96996493 183.87109375 177.09765625 C183.86652484 178.4585445 183.86121716 179.81943045 183.85520935 181.18031311 C183.84630686 184.02386892 183.84866826 186.86714344 183.85864258 189.71069336 C183.87012796 193.33651577 183.84991433 196.96136358 183.82072544 200.58705807 C183.80228981 203.39512698 183.80267039 206.20296548 183.80836296 209.01107979 C183.80858881 210.99178849 183.79176075 212.97247579 183.77455139 214.95310974 C183.84061811 223.53167669 184.77183184 229.10416651 190.46362305 235.59472656 C194.55590812 237.81019412 198.17218184 237.7361659 202.76171875 237.7421875 C203.56266968 237.75781738 204.36362061 237.77344727 205.18884277 237.78955078 C208.16465912 237.84192853 211.14099478 237.86037917 214.1171875 237.8828125 C220.7790625 237.9653125 227.4409375 238.0478125 234.3046875 238.1328125 C234.3046875 261.8928125 234.3046875 285.6528125 234.3046875 310.1328125 C212.29615707 310.1328125 192.35551313 309.62647338 171.43603516 303.73046875 C169.05750804 303.06350032 166.67168293 302.42679071 164.28515625 301.7890625 C138.42645615 294.77064634 113.51717185 284.23440627 91.3046875 269.1328125 C90.60649902 268.66230469 89.90831055 268.19179687 89.18896484 267.70703125 C34.47323309 230.63483043 -9.39080244 172.46991064 -22.59765625 106.88671875 C-22.964676 104.96896674 -23.3305446 103.0509941 -23.6953125 101.1328125 C-23.89141113 100.16972168 -24.08750977 99.20663086 -24.28955078 98.21435547 C-29.88527926 70.18080813 -30.13283053 39.34279474 -25.05517578 11.18603516 C-24.70113781 9.16604916 -24.42290822 7.14690947 -24.16015625 5.11328125 C-23.6953125 2.1328125 -23.6953125 2.1328125 -22.6953125 1.1328125 C-15.13064918 0.00175034 -7.63682677 -0.01245873 0 0 Z " fill="#1B232F" transform="translate(782.6953125,768.8671875)"/>
<path d="M0 0 C12.87 0 25.74 0 39 0 C39 20.70218821 39 20.70218821 38.484375 28.5078125 C38.42872375 29.41692383 38.37307251 30.32603516 38.31573486 31.26269531 C38.13297906 34.21719548 37.94179253 37.17107381 37.75 40.125 C37.61567515 42.25633441 37.48156624 44.38768245 37.34765625 46.51904297 C36.18511852 64.83408437 34.88633071 83.13994764 33.53417969 101.44189453 C32.47873693 115.80658155 31.53494296 130.17605653 30.62890625 144.55078125 C28.9316677 171.4588467 27.07026524 198.35511557 25.2020874 225.25177002 C24.41297799 236.61694787 23.62654572 247.98231155 22.83984375 259.34765625 C22.75648207 260.5514455 22.67312038 261.75523476 22.58723259 262.99550247 C21.43953143 279.57261762 20.30760362 296.15053129 19.21554565 312.73141479 C18.58570206 322.28251179 17.94671497 331.83299952 17.30493164 341.38330078 C17.14427433 343.78005541 16.98443361 346.17686493 16.82543945 348.57373047 C15.84069545 363.40865092 14.75750124 378.23130473 13.56640625 393.05078125 C11.90147789 413.78767496 10.4732592 434.53915066 9.07092285 455.29522705 C8.80691313 459.19261918 8.54025467 463.08982837 8.27360344 466.98704052 C8.01166013 470.8196106 7.75118654 474.6522795 7.49115372 478.48497963 C7.36957112 480.2751361 7.24760811 482.06526678 7.12520981 483.85536766 C6.44776501 493.77839518 5.81900014 503.69900186 5.37696648 513.63576794 C5.16068118 518.1460968 4.67453009 522.52978823 4 527 C3.84831613 528.70122184 3.71733666 530.40446839 3.61108398 532.10913086 C3.5211039 533.5198008 3.5211039 533.5198008 3.42930603 534.95896912 C3.36884598 535.95090775 3.30838593 536.94284637 3.24609375 537.96484375 C3.14833397 539.51480797 3.14833397 539.51480797 3.04859924 541.09608459 C2.84229861 544.37639959 2.63984338 547.65693876 2.4375 550.9375 C2.29778038 553.16993781 2.15780914 555.40235988 2.01757812 557.63476562 C1.67547207 563.08966497 1.33651765 568.5447532 1 574 C2.07556152 573.86424561 3.15112305 573.72849121 4.25927734 573.58862305 C28.72915615 570.50285923 53.1986626 567.47585397 77.72265625 564.84765625 C81.71099066 564.41976447 85.69927229 563.99138511 89.6875 563.5625 C91.19375443 563.40057663 91.19375443 563.40057663 92.73043823 563.23538208 C106.14062914 561.78985836 119.52122546 560.2225564 132.89160156 558.44506836 C142.06263689 557.23096905 151.24431732 556.15329219 160.4375 555.125 C174.47345714 553.55311263 188.48763907 551.83186063 202.5 550.0625 C219.91240068 547.86541051 237.33217374 545.75440657 254.76855469 543.75634766 C256.5253917 543.55502236 258.28222765 543.35368786 260.0390625 543.15234375 C260.8909314 543.05479797 261.74280029 542.9572522 262.6204834 542.85675049 C267.9456985 542.24433918 273.26678955 541.60432072 278.5859375 540.94140625 C286.27648385 539.98502511 293.97320579 539.0975452 301.67712402 538.25579834 C304.09819919 537.98918617 306.51828711 537.71446808 308.93847656 537.43994141 C333.94256711 534.64705803 358.82391596 533.60185455 383.96472931 533.56654358 C386.14674069 533.56257415 388.32868841 533.55372946 390.51068115 533.54406738 C416.99983361 533.45041942 443.0395961 535.51684477 469 541 C469.69383789 541.14518066 470.38767578 541.29036133 471.10253906 541.43994141 C514.13642935 550.69810093 553.34926743 571.56271404 585 602 C585.54043945 602.51852539 586.08087891 603.03705078 586.63769531 603.57128906 C593.97693109 610.65495076 600.69770651 617.9645758 607 626 C608.62913718 628.03899272 610.26274852 630.07435811 611.89624023 632.10986328 C614.26947207 635.06901389 616.63476678 638.03445378 619 641 C618.67 641.66 618.34 642.32 618 643 C617.23876831 642.21520264 617.23876831 642.21520264 616.4621582 641.41455078 C606.81777288 631.51197961 597.39577667 621.89483533 586 614 C585.17532227 613.41677979 585.17532227 613.41677979 584.33398438 612.82177734 C543.79619895 584.23184997 496.91157487 569.13647732 448 563 C446.46613292 562.79566986 444.93227729 562.59125364 443.3984375 562.38671875 C438.94071812 561.81852198 434.47680057 561.38718275 430 561 C428.45771729 560.86464844 428.45771729 560.86464844 426.88427734 560.7265625 C390.39880355 557.65628525 354.17045442 558.67956574 317.72717285 561.7689209 C314.99641687 562.00030361 312.26533372 562.22747052 309.53417969 562.45410156 C275.35493724 565.30981646 241.24996949 568.96632625 207.26757812 573.61889648 C199.39620656 574.69500912 191.51905293 575.66816929 183.625 576.5625 C168.71722833 578.25381204 153.82525053 580.02450388 138.96875 582.125 C138.25974548 582.22518936 137.55074097 582.32537872 136.82025146 582.42860413 C136.09678528 582.53087814 135.37331909 582.63315216 134.62792969 582.73852539 C133.12695689 582.95071026 131.62598028 583.16286808 130.125 583.375 C129.36981079 583.48182098 128.61462158 583.58864197 127.83654785 583.69869995 C115.36826193 585.45610856 102.8826082 586.98924453 90.375 588.4375 C76.13440403 590.08871202 61.93678752 591.9366407 47.75 594 C46.88748627 594.12538147 46.02497253 594.25076294 45.13632202 594.37994385 C43.84814072 594.56723053 43.84814072 594.56723053 42.53393555 594.75830078 C31.24843679 596.3984533 19.95805493 597.98767159 8.65270996 599.4855957 C7.04014671 599.69943301 5.42775255 599.91455038 3.81555176 600.13110352 C-5.44182686 601.37276116 -14.67616065 602.38449822 -24 603 C-24.17699086 585.70739845 -23.67346154 568.50232485 -22.86328125 551.23046875 C-22.74180503 548.55063091 -22.620801 545.87077598 -22.50045776 543.19088745 C-22.24363707 537.48796535 -21.9834112 531.78520807 -21.72079468 526.08255005 C-21.05702887 511.66128229 -20.41372479 497.23908858 -19.76879048 482.81696868 C-19.66376618 480.4699404 -19.55854696 478.12292092 -19.45327568 475.7759037 C-18.00709397 443.52321859 -16.65512525 411.26700887 -15.34768295 379.00842667 C-15.18922798 375.10506674 -15.02988502 371.20174404 -14.87026978 367.2984314 C-13.91476506 343.9142003 -12.96861714 320.53268217 -12.31439209 297.13786316 C-12.09488339 289.47609238 -11.74590515 281.84219184 -11.24560547 274.19433594 C-10.70461331 265.51873077 -10.48597634 256.82257517 -10.18460083 248.13613892 C-9.9716935 242.01376275 -9.75092105 235.89166782 -9.53125 229.76953125 C-9.46430687 227.89786537 -9.46430687 227.89786537 -9.39601135 225.98838806 C-8.96985294 214.09570657 -8.52567347 202.20379665 -8.0625 190.3125 C-8.02295197 189.29453339 -7.98340393 188.27656677 -7.94265747 187.22775269 C-7.4301805 174.10560104 -6.87202851 160.98584132 -6.27734375 147.8671875 C-6.21349111 146.45624333 -6.14964839 145.0452987 -6.08581543 143.63435364 C-6.05393505 142.92992473 -6.02205467 142.22549582 -5.98920822 141.49972057 C-5.85886643 138.61964387 -5.72855097 135.73956597 -5.59828949 132.85948563 C-5.53284034 131.4132007 -5.4673142 129.96691925 -5.40171051 128.52064133 C-4.35085154 105.33841811 -3.51689537 82.15635773 -2.81988525 58.96096802 C-2.22456692 39.27186887 -1.31038101 19.6557151 0 0 Z " fill="#1D242E" transform="translate(380,844)"/>
<path d="M0 0 C2.77124554 0.02686262 5.53844384 0.00002948 8.30957031 -0.03173828 C36.51349021 -0.08539042 63.98162295 9.097014 84.77050781 28.65185547 C96.18897396 40.95421552 104.88412498 56.25698218 108.77050781 72.65185547 C109.07794922 73.92996094 109.07794922 73.92996094 109.39160156 75.23388672 C114.46413282 100.24671328 109.17436438 127.84176729 95.33300781 149.27685547 C85.8435312 163.34576982 74.02361452 176.90065951 61.02050781 187.83935547 C43.39762888 203.14252342 30.7346435 222.39170639 26.77050781 245.65185547 C26.44050781 250.93185547 26.11050781 256.21185547 25.77050781 261.65185547 C8.61050781 261.65185547 -8.54949219 261.65185547 -26.22949219 261.65185547 C-26.22949219 234.85225386 -26.22949219 234.85225386 -23.72949219 225.21435547 C-23.46322021 224.13017334 -23.19694824 223.04599121 -22.92260742 221.92895508 C-20.5346009 212.75750684 -17.07652837 204.76205381 -12.22949219 196.65185547 C-11.69839844 195.70052734 -11.16730469 194.74919922 -10.62011719 193.76904297 C-4.14127741 182.76784473 4.81117851 173.53247825 13.82128906 164.58935547 C14.63333801 163.78288071 14.63333801 163.78288071 15.46179199 162.96011353 C18.18056372 160.26607153 20.91112409 157.58550165 23.66064453 154.92285156 C32.82064739 145.98656293 41.64708828 136.53818879 46.77050781 124.65185547 C47.0425 124.03697266 47.31449219 123.42208984 47.59472656 122.78857422 C48.34215542 121.08589481 49.05761427 119.36928083 49.77050781 117.65185547 C50.32738281 116.41435547 50.32738281 116.41435547 50.89550781 115.15185547 C54.80558059 103.98021896 54.36080875 88.15031896 50.04003906 77.23388672 C46.89635963 70.8401264 43.09242678 65.42793659 37.77050781 60.65185547 C37.06925781 59.99185547 36.36800781 59.33185547 35.64550781 58.65185547 C21.34845702 48.706081 3.14931832 47.31256959 -13.70556641 50.0546875 C-21.67602502 51.91273248 -28.90005115 55.47439859 -35.22949219 60.65185547 C-36.12861328 61.33248047 -36.12861328 61.33248047 -37.04589844 62.02685547 C-50.96105608 73.98081639 -53.21505854 94.59762112 -55.22949219 111.65185547 C-68.35283844 111.30876145 -81.11494109 109.62376132 -94.07714844 107.58935547 C-99.11947873 106.79986439 -104.15218197 106.16764571 -109.22949219 105.65185547 C-109.36146836 100.04601026 -108.95717182 94.90476177 -107.91699219 89.40185547 C-107.77874023 88.6587915 -107.64048828 87.91572754 -107.49804688 87.15014648 C-107.08668977 84.98161987 -106.6605613 82.81653829 -106.22949219 80.65185547 C-106.02453125 79.59353516 -105.81957031 78.53521484 -105.60839844 77.44482422 C-100.47008215 54.11495335 -85.92343164 32.18614097 -66.22949219 18.65185547 C-45.6646271 5.69284155 -24.27345233 -0.27826709 0 0 Z " fill="#0E171E" transform="translate(1010.2294921875,640.34814453125)"/>
<path d="M0 0 C12.54 0 25.08 0 38 0 C38.4375 14 38.4375 14 38.56811523 18.3046875 C38.6252771 20.07199219 38.6252771 20.07199219 38.68359375 21.875 C38.73858032 23.63457031 38.73858032 23.63457031 38.79467773 25.4296875 C38.94044094 29.20927129 39.20556224 32.97603719 39.46679688 36.74926758 C40.1984435 47.85386107 40.42160178 58.97879053 40.73312187 70.10126686 C41.46527115 96.06375309 42.45306591 122.01068901 43.62109375 147.95703125 C43.67561227 149.16985598 43.67561227 149.16985598 43.73123217 150.40718222 C44.21703793 161.20578353 44.71101271 172.00400455 45.20739746 182.80212402 C45.85548284 196.90480529 46.49574554 211.00784552 47.13417244 225.11096692 C47.24571639 227.57369976 47.35748994 230.03642211 47.46928406 232.4991436 C48.750524 260.75187306 49.91427332 289.00859304 51.01573181 317.26887512 C51.1299983 320.19667329 51.24445297 323.12446401 51.35913086 326.05224609 C51.38649232 326.7508839 51.41385378 327.44952171 51.44204438 328.16933036 C51.93522423 340.72042007 52.5017357 353.26722372 53.125 365.8125 C53.16789595 366.67864803 53.21079189 367.54479607 53.25498772 368.43719101 C53.33469452 370.04652735 53.41450962 371.65585833 53.49448109 373.26518154 C53.85586508 380.58325319 54.15341854 387.89898064 54.37255859 395.22290039 C54.4148821 396.6069384 54.457393 397.99097069 54.5 399.375 C54.54747879 400.96606819 54.54747879 400.96606819 54.59591675 402.58927917 C54.8471593 410.52450519 55.23467247 418.44096884 55.71344376 426.3653698 C57.46851478 455.77468354 58.57244264 485.22246592 59.81634641 514.65680718 C60.09198228 521.17268356 60.37143265 527.68839231 60.6517421 534.20406908 C60.92556743 540.57173878 61.19722523 546.93949842 61.46714294 553.30733496 C61.62690008 557.07601964 61.7873967 560.84466858 61.94995499 564.61323357 C62.10185977 568.1372393 62.25102151 571.66135122 62.3981781 575.18555832 C62.47744147 577.06858212 62.55938311 578.95149261 62.64144897 580.83439636 C62.96059742 588.5608141 63.05986802 596.26728488 63 604 C59.5619438 603.52474228 56.12461112 603.04454755 52.6875 602.5625 C51.71103516 602.42779297 50.73457031 602.29308594 49.72851562 602.15429688 C48.79072266 602.02216797 47.85292969 601.89003906 46.88671875 601.75390625 C45.59060669 601.57323608 45.59060669 601.57323608 44.26831055 601.38891602 C42 601 42 601 39 600 C40.31764248 595.91955878 41.81326357 591.96698242 43.4375 588 C50.93320781 568.39584111 51.45620042 548.70619911 43.05859375 529.39453125 C39.69750835 521.868779 39.69750835 521.868779 35.48855591 514.8097229 C33.70890985 511.45055295 33.4475926 508.95739589 33.17163086 505.17016602 C33.09225249 504.14688989 33.09225249 504.14688989 33.01127052 503.10294151 C32.83668603 500.7998661 32.6817898 498.49591401 32.52734375 496.19140625 C32.40576587 494.51480303 32.28342208 492.8382552 32.16038513 491.16175842 C30.3142312 465.54825924 28.8670033 439.90456043 27.34472656 414.27032471 C25.3963433 381.47381821 23.23410531 348.70781815 20.6906414 315.95185661 C19.94788658 306.37495636 19.24077905 296.7956766 18.55078125 287.21484375 C18.49755518 286.47580999 18.44432911 285.73677624 18.38949013 284.97534752 C18.13097979 281.38134082 17.87353157 277.78725965 17.61694336 274.19311523 C17.41008505 271.29684826 17.2016432 268.40070128 16.99194336 265.50463867 C14.96684869 237.53085138 14.96684869 237.53085138 14.34199524 223.80479431 C13.97053135 215.84337661 13.34355455 207.90599367 12.69940186 199.962677 C10.74050771 175.76970469 10.74050771 175.76970469 10.29101562 163.83203125 C10.16911692 160.71618152 9.9561021 157.67455563 9.5390625 154.58276367 C8.78910036 148.70683002 8.50946901 142.8015063 8.1640625 136.890625 C7.99074092 134.00833216 7.81453433 131.12621963 7.63769531 128.24414062 C7.56516194 127.05983522 7.56516194 127.05983522 7.49116325 125.85160446 C6.86804806 115.75315476 6.18463629 105.658705 5.50563812 95.56388855 C5.2723569 92.09329867 5.03998477 88.62264912 4.80792236 85.15197754 C3.84790963 70.79352585 3.84790963 70.79352585 2.88085938 56.43554688 C2.47958108 50.49852148 2.08220735 44.5612458 1.687397 38.62378693 C1.53812077 36.38957448 1.38743519 34.15545569 1.23524094 31.92144012 C1.02340647 28.80951547 0.81658035 25.69729363 0.61083984 22.58496094 C0.54852676 21.6871994 0.48621368 20.78943787 0.42201233 19.86447144 C-0.01098754 13.1992398 0 6.71970958 0 0 Z " fill="#726360" transform="translate(1631,844)"/>
<path d="M0 0 C1.22525391 0.13422363 2.45050781 0.26844727 3.71289062 0.40673828 C20.06418155 2.25701594 36.07938657 4.82547192 52 9 C53.02496582 9.2671582 54.04993164 9.53431641 55.10595703 9.80957031 C67.99540304 13.20714984 80.69381328 16.85060272 93 22 C93.68513672 22.28423828 94.37027344 22.56847656 95.07617188 22.86132812 C118.67143355 32.74784953 139.98219519 45.13190961 160 61 C160.89589844 61.70125 161.79179688 62.4025 162.71484375 63.125 C168.32701232 67.55247351 173.70875823 72.19442776 179 77 C178.34 77.33 177.68 77.66 177 78 C175.21362305 77.20239258 175.21362305 77.20239258 173.01171875 75.89453125 C172.17519775 75.41145508 171.33867676 74.92837891 170.47680664 74.43066406 C169.55633545 73.89666992 168.63586426 73.36267578 167.6875 72.8125 C131.04855476 52.22161441 88.72811023 39.39038682 47.203125 33.55859375 C46.2940892 33.43083054 45.38505341 33.30306732 44.44847107 33.1714325 C42.55694533 32.90728469 40.66521481 32.64459921 38.77328491 32.38336182 C36.99691165 32.13780692 35.2208563 31.88993426 33.44522095 31.63909912 C-21.91630017 23.84907911 -79.3171063 25.08070453 -135 29 C-136.2438446 29.08719299 -137.48768921 29.17438599 -138.76922607 29.26422119 C-148.93169539 29.98000318 -159.09155066 30.7293556 -169.25 31.5 C-169.96224857 31.55400845 -170.67449715 31.60801689 -171.40832901 31.66366196 C-191.79618716 33.20711821 -191.79618716 33.20711821 -212.10400391 35.54443359 C-220.88963395 36.57175441 -229.7367093 37.00791184 -238.5625 37.5625 C-241.52161532 37.75075242 -244.48061811 37.94044128 -247.43943787 38.13328552 C-249.26238592 38.25189392 -251.08551004 38.36783871 -252.90882874 38.48060608 C-257.65253145 38.78701867 -262.2937074 39.31022638 -267 40 C-269.69715888 40.23805973 -272.38959731 40.45619285 -275.08984375 40.6484375 C-276.67635792 40.76601875 -278.26286478 40.88369873 -279.84936523 41.00146484 C-281.09107986 41.09243439 -281.09107986 41.09243439 -282.35787964 41.1852417 C-296.46664144 42.22309002 -310.55586072 43.37423628 -324.63769531 44.73168945 C-339.85590685 46.19382768 -355.08485772 47.53460443 -370.31344604 48.88372803 C-383.60426442 50.06125541 -396.89183252 51.26197702 -410.17358398 52.5378418 C-416.96760457 53.19017317 -423.76343872 53.82139924 -430.5612793 54.43261719 C-431.99861632 54.56266904 -433.43578849 54.6945538 -434.87280273 54.828125 C-442.93324383 55.57651101 -450.89434583 56.1749994 -459 56 C-459.02685938 53.85423363 -459.04633088 51.70837355 -459.0625 49.5625 C-459.07410156 48.36753906 -459.08570313 47.17257812 -459.09765625 45.94140625 C-459 43 -459 43 -458 42 C-455.6418195 41.61801642 -453.29826196 41.29392987 -450.92822266 41.00366211 C-450.18288238 40.90891853 -449.4375421 40.81417496 -448.66961575 40.71656036 C-446.16824624 40.39953937 -443.666163 40.08853835 -441.1640625 39.77734375 C-439.39736022 39.55431357 -437.63071387 39.33083996 -435.86412048 39.10694885 C-432.0879196 38.6289986 -428.31143192 38.15341111 -424.53469849 37.6796875 C-414.66890464 36.44175726 -404.80514902 35.18774428 -394.94140625 33.93359375 C-393.95680105 33.80852322 -392.97219585 33.68345268 -391.95775414 33.55459213 C-368.62462771 30.58910002 -345.32022155 27.43066398 -322.01843262 24.22885132 C-304.7129154 21.85716041 -287.38623523 19.65463358 -270.0513916 17.50949097 C-258.53405116 16.08288457 -247.02279349 14.61593363 -235.515625 13.109375 C-200.46237641 8.53564243 -165.40365739 4.50958287 -130.19439697 1.29425049 C-127.23874411 1.02199181 -124.28407779 0.74112403 -121.32958984 0.45654297 C-81.33770128 -3.36394633 -39.97642121 -4.47183691 0 0 Z " fill="#1D232D" transform="translate(815,1415)"/>
<path d="M0 0 C0.66715908 0.00026688 1.33431816 0.00053375 2.02169418 0.00080872 C27.29269082 0.01682204 52.27087146 0.97893959 77.43530273 3.296875 C80.97914811 3.62308062 84.52365292 3.94111512 88.06835938 4.2578125 C114.60379747 6.6482954 141.04452325 9.62680582 167.46435547 13.046875 C170.43536437 13.43145668 173.40670088 13.81331223 176.37841797 14.19238281 C192.26733882 16.21920439 208.1471265 18.31033689 224.00217819 20.58864212 C225.50295704 20.80366998 227.00405591 21.01647722 228.50548172 21.22694016 C230.58074239 21.51881555 232.6544693 21.81983005 234.72802734 22.12353516 C235.90634125 22.29309723 237.08465515 22.4626593 238.29867554 22.63735962 C242.91402023 23.5755518 245.37620205 25.00050722 248.3125 28.625 C253.28233814 34.51920629 258.82523149 39.84382413 264.3125 45.25 C261.37203945 46.72023027 259.13187589 46.04648199 255.87109375 45.68359375 C254.84372856 45.57283508 254.84372856 45.57283508 253.79560852 45.45983887 C252.26799276 45.29514858 250.74063532 45.12805002 249.21350098 44.95895386 C244.83552681 44.47654367 240.45488036 44.01976033 236.07421875 43.5625 C235.09466217 43.46009506 234.11510559 43.35769012 233.10586548 43.25218201 C219.10098296 41.7991409 205.08237052 40.48648318 191.0625 39.1875 C190.00634239 39.0896307 190.00634239 39.0896307 188.92884827 38.98978424 C166.94682375 36.95628887 144.96093659 35.14756831 122.92881775 33.74458313 C116.60648316 33.3407415 110.28756371 32.89678532 103.96875 32.44140625 C101.07430045 32.23518983 98.17981237 32.02952339 95.28530884 31.82406616 C93.4941516 31.69605206 91.70310462 31.56648062 89.91220093 31.43496704 C60.93249205 29.31439746 31.91851907 29.00691591 2.875 29 C2.01864456 28.99955814 1.16228912 28.99911629 0.27998352 28.99866104 C-25.13773573 28.99180932 -50.4287078 29.08719397 -75.6875 32.25 C-76.40079468 32.33721313 -77.11408936 32.42442627 -77.84899902 32.51428223 C-88.50928791 33.82410089 -99.10451041 35.42076001 -109.6875 37.25 C-111.52151367 37.56445068 -111.52151367 37.56445068 -113.39257812 37.88525391 C-141.11508671 42.78078662 -168.94273757 50.78599714 -194.6875 62.25 C-195.71552734 62.69988281 -196.74355469 63.14976563 -197.80273438 63.61328125 C-209.85118362 68.90761431 -221.58070159 74.16807489 -232.34375 81.80078125 C-233.1171875 82.27902344 -233.890625 82.75726562 -234.6875 83.25 C-235.3475 82.92 -236.0075 82.59 -236.6875 82.25 C-231.71477218 77.88457371 -226.71411394 73.55327753 -221.6875 69.25 C-221.04651367 68.70021484 -220.40552734 68.15042969 -219.74511719 67.58398438 C-176.14991464 30.44984929 -122.02539231 10.53171317 -65.6875 3.25 C-64.56150391 3.09901855 -63.43550781 2.94803711 -62.27539062 2.79248047 C-41.56311075 0.14489588 -20.84751359 -0.01808851 0 0 Z " fill="#726360" transform="translate(1285.6875,1412.75)"/>
<path d="M0 0 C1.15538836 -0.00729724 1.15538836 -0.00729724 2.33411789 -0.0147419 C8.18497927 -0.05122749 14.03575292 -0.06745995 19.88671875 -0.07421875 C20.74947544 -0.07536934 21.61223213 -0.07651993 22.50113297 -0.07770538 C50.41498634 -0.10355939 77.99095292 0.70591315 105.7467041 3.91217041 C108.67380453 4.24976696 111.60188976 4.57754233 114.53027344 4.90380859 C128.09429379 6.42431933 141.63857961 8.08738337 155.17858887 9.80743408 C158.74802195 10.26033389 162.31781516 10.71030627 165.88769531 11.15966797 C179.92804879 12.92779019 193.96794547 14.6998721 208.0012207 16.5234375 C211.44546359 16.96992765 214.89058821 17.39729765 218.34057617 17.796875 C219.04048172 17.88100647 219.74038727 17.96513794 220.46150208 18.05181885 C222.23967434 18.26474226 224.01895965 18.46831732 225.79833984 18.67089844 C229.95990138 19.52151137 231.89437303 20.9899834 234.57421875 24.23828125 C234.57421875 24.89828125 234.57421875 25.55828125 234.57421875 26.23828125 C235.56421875 26.56828125 236.55421875 26.89828125 237.57421875 27.23828125 C237.57421875 27.89828125 237.57421875 28.55828125 237.57421875 29.23828125 C238.16750977 29.50632568 238.76080078 29.77437012 239.37207031 30.05053711 C241.59160077 31.24765636 243.04014051 32.4598587 244.80859375 34.2421875 C245.38222656 34.81775391 245.95585938 35.39332031 246.546875 35.98632812 C247.13339844 36.58509766 247.71992187 37.18386719 248.32421875 37.80078125 C248.92621094 38.40341797 249.52820312 39.00605469 250.1484375 39.62695312 C254.57421875 44.09789541 254.57421875 44.09789541 254.57421875 45.23828125 C248.06506284 45.44528621 242.04608636 44.63246677 235.63671875 43.55078125 C217.01786222 40.5675829 198.30244757 38.40514955 179.57421875 36.23828125 C178.53170959 36.11712952 177.48920044 35.99597778 176.4151001 35.87115479 C143.00389662 31.99399457 109.58626004 28.75226682 76.03079224 26.41317749 C73.85482159 26.25825883 71.68027924 26.09127586 69.50561523 25.91918945 C56.85340687 24.99100332 44.19194595 25.03802843 31.51171875 25.05078125 C30.31113831 25.05171783 29.11055786 25.05265442 27.87359619 25.05361938 C-18.2546426 25.13156854 -65.62470704 28.52136266 -109.42578125 44.23828125 C-110.62823486 44.66512207 -110.62823486 44.66512207 -111.85498047 45.10058594 C-123.81179597 49.38594414 -135.23396932 54.23994862 -146.42578125 60.23828125 C-147.4940918 60.79854004 -147.4940918 60.79854004 -148.58398438 61.37011719 C-165.2806679 70.14208434 -180.36600576 80.67642123 -194.42578125 93.23828125 C-195.20477783 93.93268311 -195.20477783 93.93268311 -195.99951172 94.64111328 C-202.68647255 100.62897335 -209.15016165 106.82003394 -215.42578125 113.23828125 C-215.42578125 109.74072156 -214.92681561 109.27023878 -212.75 106.68359375 C-212.17499756 105.99297852 -211.59999512 105.30236328 -211.00756836 104.59082031 C-210.38245361 103.85573242 -209.75733887 103.12064453 -209.11328125 102.36328125 C-208.47463135 101.60241211 -207.83598145 100.84154297 -207.17797852 100.05761719 C-205.87616735 98.50825222 -204.57140158 96.96136491 -203.26367188 95.41699219 C-201.66160549 93.51783698 -200.07777501 91.60610433 -198.50390625 89.68359375 C-192.36684392 82.2286474 -185.76454433 75.37146201 -178.85253906 68.6328125 C-176.14152162 65.98302954 -173.45594769 63.3069395 -170.82495117 60.57763672 C-166.77109118 56.4173508 -162.53886453 52.80451518 -157.86328125 49.36328125 C-157.16783203 48.84789795 -156.47238281 48.33251465 -155.75585938 47.80151367 C-149.16488063 42.96548047 -142.40955633 38.48305569 -135.42578125 34.23828125 C-134.84489746 33.87669922 -134.26401367 33.51511719 -133.66552734 33.14257812 C-94.47573325 8.90411262 -45.44604694 0.2208017 0 0 Z " fill="#726260" transform="translate(1259.42578125,1377.76171875)"/>
<path d="M0 0 C2.13717251 0.01068343 4.27349818 0.00008137 6.41064453 -0.01269531 C20.21322732 -0.02764316 31.91754427 1.3646443 42.27392578 11.26074219 C48.85533695 18.88919605 51.25994527 27.2506987 51.27392578 37.26074219 C50.52820323 46.31788158 46.6262586 54.73195568 40.27392578 61.26074219 C29.32582305 69.65009294 18.96835292 70.44768751 5.4777832 70.44604492 C3.47684631 70.44822538 1.47594904 70.46672531 -0.52490234 70.48535156 C-14.08436444 70.50568059 -24.70138678 69.02534419 -34.97607422 59.63574219 C-41.92213321 52.24602274 -44.98894247 43.33735837 -44.72607422 33.26074219 C-43.58143728 21.57157104 -38.68038969 13.76460656 -29.72607422 6.26074219 C-20.57459115 0.16547673 -10.66101482 -0.06335689 0 0 Z " fill="#9AA1A8" transform="translate(1932.72607421875,1913.7392578125)"/>
<path d="M0 0 C18.81 0 37.62 0 57 0 C57 19.47 57 38.94 57 59 C38.19 59 19.38 59 0 59 C0 39.53 0 20.06 0 0 Z " fill="#0F181F" transform="translate(982,933)"/>
<path d="M0 0 C2.29013653 3.4352048 2.17842973 4.985331 2 9 C1.25617065 9.34442139 1.25617065 9.34442139 0.49731445 9.69580078 C-20.59674593 19.57557234 -39.41409549 32.14081404 -56.62109375 47.83984375 C-58.78271952 49.80269933 -60.97526262 51.7196626 -63.1875 53.625 C-70.60810304 60.12544826 -76.93288024 67.22301657 -83 75 C-83.52013672 75.66016113 -84.04027344 76.32032227 -84.57617188 77.00048828 C-94.18575201 89.28464231 -101.98118552 102.08230418 -109 116 C-109.36206543 116.71704102 -109.72413086 117.43408203 -110.09716797 118.17285156 C-113.9572654 125.91583106 -117.20519926 133.8527243 -120.13623047 141.98779297 C-121.90970175 146.90970175 -121.90970175 146.90970175 -123 148 C-127.09789669 147.62056512 -129.53958935 147.30694043 -133 145 C-132.47755405 138.3388141 -130.10063301 132.73610144 -127.5 126.625 C-127.04786133 125.55789795 -126.59572266 124.4907959 -126.12988281 123.39135742 C-117.24651283 102.72306886 -105.75277903 83.07497573 -91 66 C-90.00483466 64.82193014 -89.01007945 63.64351376 -88.015625 62.46484375 C-78.20116273 50.90912949 -67.96571446 40.37587489 -56 31 C-55.03835938 30.22140625 -54.07671875 29.4428125 -53.0859375 28.640625 C-40.78503793 18.86218838 -27.42460083 10.67511574 -13.625 3.1875 C-12.83464355 2.74857422 -12.04428711 2.30964844 -11.22998047 1.85742188 C-4.14106735 -1.88441829 -4.14106735 -1.88441829 0 0 Z " fill="#151F27" transform="translate(910,598)"/>
<path d="M0 0 C1.09054687 0.11214844 2.18109375 0.22429687 3.3046875 0.33984375 C4.52671875 0.46359375 5.74875 0.58734375 7.0078125 0.71484375 C14.43508238 1.66761306 21.8118458 2.94912739 29.1796875 4.27734375 C29.6746875 10.71234375 29.6746875 10.71234375 30.1796875 17.27734375 C23.29880763 17.43999559 16.79695097 16.81925276 9.9921875 15.83984375 C1.38823251 14.65392493 -7.14148807 13.71354117 -15.8203125 13.27734375 C-15.8203125 12.61734375 -15.8203125 11.95734375 -15.8203125 11.27734375 C-13.9921875 9.69140625 -13.9921875 9.69140625 -11.5703125 7.90234375 C-9.0757004 6.05176549 -6.93358928 4.40934587 -4.90625 2.046875 C-2.8203125 0.27734375 -2.8203125 0.27734375 0 0 Z " fill="#756764" transform="translate(1662.8203125,1453.72265625)"/>
<path d="M0 0 C3.00197464 1.80118478 4.45166366 2.90332732 6 6 C6.08372659 7.52148326 6.10730027 9.04655778 6.09765625 10.5703125 C6.09443359 11.46621094 6.09121094 12.36210938 6.08789062 13.28515625 C6.07951172 14.22230469 6.07113281 15.15945313 6.0625 16.125 C6.05798828 17.06988281 6.05347656 18.01476563 6.04882812 18.98828125 C6.03702357 21.32558387 6.02055759 23.66276061 6 26 C4.02 26 2.04 26 0 26 C-0.33 25.34 -0.66 24.68 -1 24 C-1.53625 24.495 -2.0725 24.99 -2.625 25.5 C-5.66554673 27.4203453 -7.45624771 27.36914086 -11 27 C-14.34265205 25.79293121 -14.94704566 25.07943151 -17 22 C-17.77076412 15.06312292 -17.77076412 15.06312292 -15.1875 11.5 C-10.49964664 9.29395136 -6.09556265 9.67873861 -1 10 C-1.66 8.68 -2.32 7.36 -3 6 C-6.94727588 5.82057837 -9.5980513 5.90649311 -13 8 C-13.99 7.34 -14.98 6.68 -16 6 C-16 5.01 -16 4.02 -16 3 C-11.58407442 -1.11137899 -5.65938893 -0.79027503 0 0 Z " fill="#3B4757" transform="translate(1934,1940)"/>
<path d="M0 0 C2.31 0 4.62 0 7 0 C7 8.58 7 17.16 7 26 C4.69 26 2.38 26 0 26 C0 17.42 0 8.84 0 0 Z " fill="#3E4B59" transform="translate(1946,1940)"/>
<path d="M0 0 C0.33 0 0.66 0 1 0 C1 5.61 1 11.22 1 17 C-7.58 17 -16.16 17 -25 17 C-25 26.57 -25 36.14 -25 46 C-25.66 46 -26.32 46 -27 46 C-26.99476318 45.36497559 -26.98952637 44.72995117 -26.98413086 44.07568359 C-26.96323744 41.17546595 -26.95030066 38.2752642 -26.9375 35.375 C-26.92912109 34.37597656 -26.92074219 33.37695312 -26.91210938 32.34765625 C-26.90888672 31.37441406 -26.90566406 30.40117188 -26.90234375 29.3984375 C-26.89710693 28.50817871 -26.89187012 27.61791992 -26.88647461 26.70068359 C-26.9685144 23.43148249 -26.9685144 23.43148249 -28 18 C-35.92 17.67 -43.84 17.34 -52 17 C-52 16.67 -52 16.34 -52 16 C-34.84 16 -17.68 16 0 16 C0 10.72 0 5.44 0 0 Z " fill="#8A8B8C" transform="translate(1036,886)"/>
<path d="M0 0 C3.44677 1.48343 5.67343301 3.43050188 8.30957031 6.08251953 C9.15013977 6.92324005 9.99070923 7.76396057 10.85675049 8.63015747 C11.75480408 9.53853363 12.65285767 10.44690979 13.578125 11.3828125 C14.5046991 12.31221649 15.43127319 13.24162048 16.38592529 14.19918823 C18.84315789 16.6640385 21.29432361 19.13483666 23.7442627 21.60693359 C26.24773809 24.13090765 28.75692063 26.64919388 31.265625 29.16796875 C36.18267525 34.10643597 41.09333788 39.051212 46 44 C41.37619382 44 39.2090308 41.12319252 36 38 C34.16204689 35.99389374 32.38387934 33.9478987 30.6171875 31.87890625 C27.51461406 28.27422552 24.1448164 25.10246541 20.5 22.0625 C17.25709747 19.3297955 14.71630298 16.25956358 12 13 C10.84978984 12.00155368 9.68211066 11.02296491 8.5 10.0625 C4.91834347 7.1078293 2.55211255 3.8668372 0 0 Z " fill="#9E9591" transform="translate(1393,1282)"/>
<path d="M0 0 C-0.875 4.875 -0.875 4.875 -2 6 C-4.33297433 6.04092937 -6.66705225 6.04241723 -9 6 C-9.6875 4.1875 -9.6875 4.1875 -10 2 C-7.63939534 -2.27859594 -4.19472714 -0.87060375 0 0 Z " fill="#949BA4" transform="translate(1933,1955)"/>
<path d="M0 0 C3.90851199 1.58431453 6.52367356 4.26635095 9.421875 7.2265625 C9.92672424 7.73424164 10.43157349 8.24192078 10.95172119 8.76498413 C12.55592096 10.38033842 14.15300856 12.00252209 15.75 13.625 C16.83938107 14.72441698 17.9292199 15.82338059 19.01953125 16.921875 C21.68501885 19.6093602 24.34415143 22.30299021 27 25 C26.01 25.33 25.02 25.66 24 26 C23.55269531 25.48050781 23.10539062 24.96101563 22.64453125 24.42578125 C17.1583174 18.09733415 11.38197323 12.38964887 5.0859375 6.8671875 C1.35456039 3.52711586 1.35456039 3.52711586 0 2 C0 1.34 0 0.68 0 0 Z " fill="#968D89" transform="translate(1279,1167)"/>
<path d="M0 0 C4.70588235 0.70588235 4.70588235 0.70588235 6 2 C6.1875 4.4375 6.1875 4.4375 6 7 C5.34 7.66 4.68 8.32 4 9 C1.06546739 8.63318342 0.13562754 8.13562754 -2 6 C-1.44444444 1.44444444 -1.44444444 1.44444444 0 0 Z " fill="#3F4C58" transform="translate(1947,1929)"/>
<path d="M0 0 C0.66 0 1.32 0 2 0 C2 0.66 2 1.32 2 2 C2.66 2 3.32 2 4 2 C5.55078125 3.609375 5.55078125 3.609375 7.3125 5.75 C9.99674618 8.91874705 12.72760165 11.43514724 16 14 C17.35386936 15.65002828 18.68678142 17.3174387 20 19 C20.9075 19.86625 21.815 20.7325 22.75 21.625 C25 24 25 24 25 27 C21.43326807 23.48259521 17.87307049 19.95875538 14.31884766 16.42871094 C13.10807151 15.22801105 11.89550899 14.0291098 10.68115234 12.83203125 C8.93898662 11.11404252 7.20328456 9.38975125 5.46875 7.6640625 C4.92190552 7.12754059 4.37506104 6.59101868 3.81164551 6.03823853 C2.50258902 4.72957713 1.24578094 3.36903374 0 2 C0 1.34 0 0.68 0 0 Z " fill="#9D948F" transform="translate(1471,1176)"/>
<path d="M0 0 C2.71874025 0.07455412 4.46225623 0.48044168 6.44384766 2.39501953 C7.9632395 4.24375784 9.39886478 6.13172719 10.8125 8.0625 C11.56563477 9.05733398 11.56563477 9.05733398 12.33398438 10.07226562 C13.56798686 11.70584987 14.78562741 13.351771 16 15 C15.67 15.66 15.34 16.32 15 17 C12.49195282 14.54976242 9.9949924 12.08852402 7.5 9.625 C6.78457031 8.92632813 6.06914063 8.22765625 5.33203125 7.5078125 C4.65527344 6.8375 3.97851562 6.1671875 3.28125 5.4765625 C2.65283203 4.85861816 2.02441406 4.24067383 1.37695312 3.60400391 C0 2 0 2 0 0 Z " fill="#2F2B2B" transform="translate(983,1470)"/>
<path d="M0 0 C3.36335594 1.45745424 5.54534005 3.31117854 8.109375 5.9140625 C8.86347656 6.67460938 9.61757812 7.43515625 10.39453125 8.21875 C11.17183594 9.0128125 11.94914062 9.806875 12.75 10.625 C13.54277344 11.42679688 14.33554688 12.22859375 15.15234375 13.0546875 C17.10614493 15.03202846 19.05512103 17.01388909 21 19 C16.37914241 19 14.20426624 16.12531102 11 13 C9.17734389 10.97947725 7.40919118 8.92949864 5.67578125 6.83203125 C4.02654824 4.90799985 4.02654824 4.90799985 1.79296875 3.38671875 C1.20128906 2.92910156 0.60960937 2.47148438 0 2 C0 1.34 0 0.68 0 0 Z " fill="#968D8A" transform="translate(1418,1307)"/>
<path d="M0 0 C0.33 0 0.66 0 1 0 C1 10.23 1 20.46 1 31 C0.67 31 0.34 31 0 31 C0 26.05 0 21.1 0 16 C-2.31 16 -4.62 16 -7 16 C-7 15.67 -7 15.34 -7 15 C-5.35 15 -3.7 15 -2 15 C-1.34 10.05 -0.68 5.1 0 0 Z " fill="#9F9B9A" transform="translate(346,927)"/>
<path d="M0 0 C0.33 0 0.66 0 1 0 C0.98428955 0.56509277 0.9685791 1.13018555 0.95239258 1.71240234 C0.89012955 4.26650023 0.85103864 6.82043871 0.8125 9.375 C0.78736328 10.26445313 0.76222656 11.15390625 0.73632812 12.0703125 C0.72666016 12.92109375 0.71699219 13.771875 0.70703125 14.6484375 C0.6913208 15.43395996 0.67561035 16.21948242 0.65942383 17.02880859 C0.77181396 17.67930176 0.8842041 18.32979492 1 19 C1.99 19.66 2.98 20.32 4 21 C3 22 3 22 0.4375 22.0625 C-0.366875 22.041875 -1.17125 22.02125 -2 22 C-1.86145912 18.70798357 -1.71292976 15.41649291 -1.5625 12.125 C-1.50352539 10.71927734 -1.50352539 10.71927734 -1.44335938 9.28515625 C-1.40146484 8.38925781 -1.35957031 7.49335937 -1.31640625 6.5703125 C-1.27974854 5.74289551 -1.24309082 4.91547852 -1.20532227 4.06298828 C-1 2 -1 2 0 0 Z " fill="#2C2B2E" transform="translate(394,1384)"/>
<path d="M0 0 C1.32 0.33 2.64 0.66 4 1 C3.34 1.66 2.68 2.32 2 3 C1.75466677 5.65466072 1.75466677 5.65466072 1.875 8.7421875 C1.89046875 9.89074219 1.9059375 11.03929687 1.921875 12.22265625 C1.9737913 14.64974316 2.02587355 17.07682653 2.078125 19.50390625 C2.09359375 20.65503906 2.1090625 21.80617188 2.125 22.9921875 C2.14820313 24.04776855 2.17140625 25.10334961 2.1953125 26.19091797 C2 29 2 29 0 33 C0 22.11 0 11.22 0 0 Z " fill="#9C9794" transform="translate(346,893)"/>
<path d="M0 0 C0.66 0.66 1.32 1.32 2 2 C-2.29 6.29 -6.58 10.58 -11 15 C-11.66 14.67 -12.32 14.34 -13 14 C-11.02108364 11.85393535 -9.04187901 9.70813786 -7.0625 7.5625 C-6.49853516 6.95083984 -5.93457031 6.33917969 -5.35351562 5.70898438 C-4.81533203 5.12568359 -4.27714844 4.54238281 -3.72265625 3.94140625 C-3.22515869 3.40201416 -2.72766113 2.86262207 -2.21508789 2.30688477 C-1.48918929 1.52614632 -0.75381738 0.75381738 0 0 Z " fill="#988E89" transform="translate(1069,829)"/>
<path d="M0 0 C0.99 0.33 1.98 0.66 3 1 C-1.29 5.29 -5.58 9.58 -10 14 C-10 10.25805947 -8.98358659 9.3230581 -6.6875 6.4375 C-6.07261719 5.65246094 -5.45773437 4.86742187 -4.82421875 4.05859375 C-3 2 -3 2 0 0 Z " fill="#7B6C64" transform="translate(1054,1477)"/>
<path d="M0 0 C0 4.13781054 -1.71509607 5.20919996 -4.5 8.1875 C-5.3353125 9.08855469 -6.170625 9.98960937 -7.03125 10.91796875 C-7.6809375 11.60503906 -8.330625 12.29210938 -9 13 C-9.33 12.01 -9.66 11.02 -10 10 C-6.7 6.7 -3.4 3.4 0 0 Z " fill="#1F2020" transform="translate(1202,1014)"/>
<path d="M0 0 C3.39770885 0.3299428 5.2681087 1.8192521 7.75 4.0625 C8.67039062 4.88427734 8.67039062 4.88427734 9.609375 5.72265625 C10.29773438 6.35494141 10.29773438 6.35494141 11 7 C10.01 7.495 10.01 7.495 9 8 C6.3984375 6.78515625 6.3984375 6.78515625 3.375 5.0625 C2.37210938 4.49660156 1.36921875 3.93070313 0.3359375 3.34765625 C-0.43492187 2.90292969 -1.20578125 2.45820312 -2 2 C-1.34 1.34 -0.68 0.68 0 0 Z " fill="#342F2F" transform="translate(983,1485)"/>
<path d="M0 0 C0.66 0 1.32 0 2 0 C2 0.66 2 1.32 2 2 C2.66 2 3.32 2 4 2 C5.70680947 3.62553283 7.37660195 5.29115995 9 7 C8.67 7.99 8.34 8.98 8 10 C6.66070495 8.71451591 5.32871357 7.42141845 4 6.125 C2.88625 5.04605469 2.88625 5.04605469 1.75 3.9453125 C0 2 0 2 0 0 Z " fill="#958B88" transform="translate(1449,1154)"/>
<path d="M0 0 C0.66 0.33 1.32 0.66 2 1 C0.35 4.3 -1.3 7.6 -3 11 C-3.66 10.67 -4.32 10.34 -5 10 C-3.66511872 6.40608886 -2.03977277 3.24509304 0 0 Z " fill="#1A1A1C" transform="translate(1313,970)"/>
<path d="M0 0 C0 3 0 3 -1.75 5.25 C-2.86375 6.11625 -2.86375 6.11625 -4 7 C-5.32 6.67 -6.64 6.34 -8 6 C-5.36 4.02 -2.72 2.04 0 0 Z " fill="#1B1E1F" transform="translate(1184,1031)"/>
<path d="M0 0 C3.00765886 2.84936103 5.27845212 5.23511958 7 9 C5.82460004 8.07347299 4.65989423 7.13336613 3.5 6.1875 C2.52546875 5.40439453 2.52546875 5.40439453 1.53125 4.60546875 C0 3 0 3 0 0 Z " fill="#433A37" transform="translate(992,1478)"/>
<path d="M0 0 C1.32 0.33 2.64 0.66 4 1 C3.34 1.66 2.68 2.32 2 3 C1.53993654 5.20250992 1.53993654 5.20250992 1.375 7.625 C1.30023438 8.44226562 1.22546875 9.25953125 1.1484375 10.1015625 C1.07496094 11.04128906 1.07496094 11.04128906 1 12 C0.67 12 0.34 12 0 12 C0 8.04 0 4.08 0 0 Z " fill="#16191D" transform="translate(357,1458)"/>
<path d="M0 0 C2.97 0.99 5.94 1.98 9 3 C9 3.66 9 4.32 9 5 C5.51694958 4.35499066 2.93797836 2.95865224 0 1 C0 0.67 0 0.34 0 0 Z " fill="#1F2025" transform="translate(914,1396)"/>
<path d="M0 0 C0.66 0.99 1.32 1.98 2 3 C0.35 4.65 -1.3 6.3 -3 8 C-3.66 7.67 -4.32 7.34 -5 7 C-3.35 4.69 -1.7 2.38 0 0 Z " fill="#1C1E20" transform="translate(1231,980)"/>
<path d="M0 0 C0.33 0 0.66 0 1 0 C1.17942163 3.94727588 1.09350689 6.5980513 -1 10 C-1.66 10 -2.32 10 -3 10 C-2.01 6.7 -1.02 3.4 0 0 Z " fill="#212323" transform="translate(1262,924)"/>
</svg>
